Monoid-Diacritics-Regular.sfdir
StartChar: numbersign
Encoding: 35 35 42
GlifName: numbersign
Width: 1920
VWidth: 0
Flags: H
LayerCount: 5
Back
SplineSet
640 -380 m 25
 896 1916 l 1049
256 -380 m 25
 512 1916 l 1049
1024 1148 m 5
 1024 1028 l 5
 128 1028 l 5
 128 1148 l 5
 1024 1148 l 5
1024 508 m 5
 1024 388 l 5
 128 388 l 5
 128 508 l 5
 1024 508 l 5
EndSplineSet
Fore
Layer: 2
SplineSet
1024 504 m 5
 1024 384 l 5
 896 384 l 5
 896 0 l 5
 768 0 l 5
 768 384 l 5
 512 384 l 5
 512 0 l 5
 384 0 l 5
 384 384 l 5
 256 384 l 5
 256 504 l 5
 384 504 l 5
 384 904 l 5
 256 904 l 5
 256 1024 l 5
 384 1024 l 5
 384 1408 l 5
 512 1408 l 5
 512 1024 l 5
 768 1024 l 5
 768 1408 l 5
 896 1408 l 5
 896 1024 l 5
 1024 1024 l 5
 1024 904 l 5
 896 904 l 5
 896 504 l 5
 1024 504 l 5
512 904 m 5
 512 504 l 5
 768 504 l 5
 768 904 l 5
 512 904 l 5
EndSplineSet
Layer: 3
Layer: 4
EndChar
StartChar: dollar
Encoding: 36 36 43
GlifName: dollar
Width: 1920
VWidth: 0
Flags: H
LayerCount: 5
Back
SplineSet
620 -16 m 4
 486 -16 366 -2 250 16 c 5
 250 139 l 5
 364 121 492 104 620 104 c 4
 799 104 926 209 926 385 c 4
 926 508 857 597 768 632 c 4
 654 678 544 650 411 721 c 4
 304 778 226 895 226 1045 c 4
 226 1266 385 1424 620 1424 c 4
 756 1424 877 1410.85714286 990 1399 c 5
 990 1278 l 5
 878 1290.37037037 745 1304 620 1304 c 4
 455 1304 354 1198 354 1045 c 4
 354 942 405 863 477 825 c 4
 575 773 700 788 816 742 c 4
 945 691 1054 566 1054 385 c 4
 1054 143 869 -16 620 -16 c 4
EndSplineSet
Fore
Layer: 2
Layer: 3
Layer: 4
Substitution2: "'ss01' Style Set 1 lookup 0 subtable" dollar.empty
EndChar
StartChar: percent
Encoding: 37 37 44
GlifName: percent
Width: 1920
VWidth: 0
Flags: H
LayerCount: 5
Back
SplineSet
128 256 m 5
 1024 1152 l 1029
EndSplineSet
Fore
Layer: 2
SplineSet
128 1408 m 5
 1024 1408 l 5
 1024 0 l 5
 128 0 l 5
 128 1408 l 5
EndSplineSet
Layer: 3
SplineSet
768 468 m 4
 890.525 468 976 381.08828125 976 256 c 4
 976 130.91171875 890.525 44 768 44 c 4
 645.475 44 560 130.91171875 560 256 c 4
 560 381.08828125 645.475 468 768 468 c 4
128 434 m 1
 1024 1130 l 1
 1024 974 l 1
 128 278 l 1
 128 434 l 1
EndSplineSet
Layer: 4
EndChar
StartChar: asterisk
Encoding: 42 42 47
GlifName: asterisk
Width: 1920
VWidth: 0
Flags: H
LayerCount: 5
Back
Fore
Layer: 2
Layer: 3
SplineSet
169 553 m 29
 983 1367 l 1053
169 1367 m 29
 983 553 l 1053
EndSplineSet
Layer: 4
SplineSet
512 601 m 5
 427 640 l 5
 158 906 l 1
 240 1000 l 1
 571 664 l 1
 581 664 l 1
 912 1000 l 1
 994 906 l 1
 664 581 l 1
 664 571 l 1
 994 246 l 1
 912 152 l 1
 581 488 l 1
 571 488 l 1
 240 152 l 1
 158 246 l 1
 427 512 l 5
 512 551 l 5
 512 601 l 5
601 640 m 1
 640 725 l 1
 906 994 l 1
 1000 912 l 1
 664 581 l 1
 664 571 l 1
 1000 240 l 1
 906 158 l 1
 581 488 l 1
 571 488 l 1
 246 158 l 1
 152 240 l 1
 488 571 l 1
 488 581 l 1
 152 912 l 1
 246 994 l 1
 512 725 l 1
 551 640 l 1
 601 640 l 1
640 551 m 1
 725 512 l 1
 994 246 l 1
 912 152 l 1
 581 488 l 1
 571 488 l 1
 240 152 l 1
 158 246 l 1
 488 571 l 1
 488 581 l 1
 158 906 l 1
 240 1000 l 1
 571 664 l 1
 581 664 l 1
 912 1000 l 1
 994 906 l 1
 725 640 l 1
 640 601 l 1
 640 551 l 1
EndSplineSet
Substitution2: "'ss02' Style Set 2 lookup 1 subtable" asterisk.multi
EndChar
StartChar: comma
Encoding: 44 44 48
GlifName: comma
Width: 1920
VWidth: 0
Flags: H
LayerCount: 5
Back
Fore
Layer: 2
SplineSet
354 -213 m 5
 391 -159 450 -76 450 -9 c 4
 450 95 368 149 368 256 c 4
 368 343 430 400 512 400 c 4
 589 400 656 347 656 224 c 4
 656 4 561 -155 454 -286 c 5
 354 -213 l 5
EndSplineSet
Layer: 3
Layer: 4
Position2: "Single Positioning lookup 20 subtable" dx=-128 dy=0 dh=0 dv=0
Position2: "Single Positioning lookup 14 subtable" dx=128 dy=0 dh=0 dv=0
Position2: "Single Positioning lookup 12 subtable" dx=128 dy=0 dh=0 dv=0
Position2: "Single Positioning lookup 11 subtable" dx=128 dy=0 dh=0 dv=0
Position2: "Single Positioning lookup 6 subtable" dx=128 dy=0 dh=0 dv=0
Position2: "Single Positioning lookup 5 subtable" dx=128 dy=0 dh=0 dv=0
Position2: "Single Positioning lookup 4 subtable" dx=128 dy=0 dh=0 dv=0
Position2: "Single Positioning lookup 2 subtable" dx=128 dy=0 dh=0 dv=0
Position2: "Single Positioning lookup 1 subtable" dx=128 dy=0 dh=0 dv=0
EndChar
StartChar: slash
Encoding: 47 47 49
GlifName: slash
Width: 1920
VWidth: 0
Flags: H
LayerCount: 5
Back
SplineSet
238.034488438 -154.535563034 m 1
 125.965511562 -101.464436966 l 1
 913.965511562 1562.53556303 l 1
 1026.03448844 1509.46443697 l 1
 238.034488438 -154.535563034 l 1
EndSplineSet
Fore
Layer: 2
SplineSet
182 -128 m 5
 970 1536 l 1029
EndSplineSet
Layer: 3
Layer: 4
Substitution2: "Single Substitution lookup 70 subtable" ligadoubleslash
Substitution2: "Single Substitution lookup 69 subtable" larsenwork
Substitution2: "Single Substitution lookup 68 subtable" ligatrippleslash
Substitution2: "Single Substitution lookup 67 subtable" larsenwork1
Substitution2: "Single Substitution lookup 66 subtable" larsenwork1
Position2: "Single Positioning lookup 22 subtable" dx=128 dy=0 dh=0 dv=0
EndChar
StartChar: two
Encoding: 50 50 51
GlifName: two
Width: 1920
VWidth: 0
Flags: H
LayerCount: 5
Back
Fore
Layer: 2
SplineSet
576 1364 m 4
 733.868164062 1364 844 1254.12988281 844 1096 c 4
 844 937.870076497 733.868164062 828 576 828 c 4
 418.131795247 828 308 937.870076497 308 1096 c 4
 308 1254.12988281 418.131795247 1364 576 1364 c 4
EndSplineSet
Layer: 3
SplineSet
192 1293 m 4
 248.355904097 1308.52974632 304.967301076 1323.17688803 362 1336 c 4
 428.18775421 1350.88151533 495.3409582 1364.00064682 563.175452299 1364.00064682 c 4
 564 1364 l 4
 603.210791242 1363.93844802 642.706382424 1359.01018897 679.650250993 1345.87091526 c 4
 716.594119563 1332.73164155 750.646621617 1311.0342795 777 1282 c 4
 800.08411194 1256.56756593 817.130103031 1225.90940022 828.042690246 1193.34254027 c 4
 838.854362991 1161.07684332 844.001344804 1126.98301712 844.001344804 1092.95287789 c 4
 844.001344804 1063.36742011 839.951057919 1034.17348812 831.244726667 1006.08964992 c 4
 822.640059437 978.333747312 809.142161828 952.385619678 795 927 c 6
 312 60 l 5
 896 60 l 1029
  Spiro
    192 1293 {
    362 1336 o
    564 1364 o
    777 1282 o
    844 1092 o
    795 927 [
    312 60 v
    896 60 v
    0 0 z
  EndSpiro
EndSplineSet
Layer: 4
EndChar
StartChar: three
Encoding: 51 51 52
GlifName: three
Width: 1920
VWidth: 0
Flags: H
CounterMasks: 1 e0
LayerCount: 5
Back
SplineSet
765 703 m 5xf0
 867 639 929 517 928 374 c 4
 927 157 809 -16 556 -16 c 4
 449 -16 344 -1.23076923077 256 16 c 5
 256 143 l 5
 346 123.169491525 458 104 556 104 c 4
 735 104 800 223 800 374 c 4xe8
 800 491 754 593 666 628 c 4
 633 641 591 644 542 644 c 6
 384 644 l 5
 384 764 l 5
 543 764 l 6
 590 764 629 767 659 780 c 4
 743 816 780 919 780 1034 c 4
 780 1181 730 1304 556 1304 c 4
 449 1304 345 1281.33333333 256 1264 c 5
 256 1389 l 5
 344 1406.18181818 441 1424 556 1424 c 4
 803 1424 908 1248 908 1034 c 4
 908 899 859 779 765 713 c 5
 765 703 l 5xf0
EndSplineSet
Fore
Layer: 2
SplineSet
576 1364 m 0
 522.983399173 1364.10310218 470.545829875 1353.4015328 419 1341 c 0
 341.255197591 1322.29519459 264.384529476 1300.14345166 187 1280 c 1
 0 895 l 1
 384 704 l 1
 543 704 l 2
 591.45919514 704 641.085040315 706.488073678 685.658222736 725.501884514 c 0
 730.231405157 744.51569535 767.748750754 778.639777501 793 820 c 0
 831.682058309 883.35918365 843.954259386 959.766007142 844 1034 c 0
 844.042521519 1103.00961404 833.392679198 1173.58361167 800.633107707 1234.32189542 c 0
 784.253321962 1264.6910373 762.112987411 1292.10232944 734.925190856 1313.3486439 c 0
 707.737394301 1334.59495835 675.653045359 1349.38063668 642 1357 c 0
 620.378638615 1361.89527786 598.16856231 1363.95688846 576 1364 c 0
  Spiro
    576 1364 o
    419 1341 o
    187 1280 v
    0 895 v
    384 704 v
    543 704 ]
    793 820 o
    844 1034 o
    642 1357 o
    0 0 z
  EndSpiro
807 589 m 0
 778.910630381 631.028972965 738.26006051 664.731613617 691.221753075 683.247684684 c 0
 644.18344564 701.763755751 592.551431771 704 542 704 c 2
 384 704 l 1
 0 532 l 1
 132 148 l 1
 207.817094658 121.978873323 284.37138086 97.9781972755 362 78 c 0
 432.12616862 59.9526039959 503.588770712 43.9564012775 576 44 c 0
 598.125157314 44.0133215332 620.287676128 45.7458542894 642 50 c 0
 677.012044114 56.8599905827 710.76519992 70.6043780401 739.980216028 91.0832827389 c 0
 769.195232136 111.562187438 793.695432415 138.513775504 812.311094712 168.949935267 c 0
 849.542419305 229.822254793 863.78811813 302.644790509 864 374 c 0
 864.223352011 449.217995483 848.795757664 526.462720143 807 589 c 0
  Spiro
    807 589 o
    542 704 [
    384 704 v
    0 532 v
    132 148 v
    362 78 o
    576 44 o
    642 50 o
    864 374 o
    0 0 z
  EndSpiro
EndSplineSet
Layer: 3
SplineSet
576 1364 m 4
 553.831802792 1364 531.627683605 1361.86541564 510 1357 c 4
 476.318733698 1349.42298146 444.167348932 1334.74286822 416.927495224 1313.53368908 c 4
 389.687641517 1292.32450994 367.524237056 1264.89514465 351.170123291 1234.49149565 c 4
 318.46189576 1173.68419764 308 1103.04603999 308 1034 c 4
 308 964.953960006 318.46189576 894.315802358 351.170123291 833.508504353 c 4
 367.524237056 803.104855351 389.687641517 775.675490058 416.927495224 754.466310921 c 4
 444.167348932 733.257131784 476.318733698 718.577018541 510 711 c 4
 531.627683605 706.134584365 553.831802792 704 576 704 c 4
 598.168197208 704 620.372316395 706.134584365 642 711 c 4
 675.681266302 718.577018541 707.832651068 733.257131784 735.072504776 754.466310921 c 4
 762.312358483 775.675490059 784.475762944 803.104855351 800.829876709 833.508504353 c 4
 833.53810424 894.315802358 844 964.953960006 844 1034 c 4
 844 1103.04603999 833.53810424 1173.68419764 800.829876709 1234.49149565 c 4
 784.475762944 1264.89514465 762.312358483 1292.32450994 735.072504776 1313.53368908 c 4
 707.832651068 1334.74286822 675.681266302 1349.42298146 642 1357 c 4
 620.372316395 1361.86541564 598.168197208 1364 576 1364 c 4
  Spiro
    576 1364 o
    510 1357 o
    308 1034 o
    510 711 o
    576 704 o
    642 711 o
    844 1034 o
    642 1357 o
    0 0 z
  EndSpiro
576 704 m 4
 553.875934641 704 531.720863017 702.204566307 510 698 c 4
 474.928969672 691.211205633 441.06317059 677.63836591 411.735969344 657.242774125 c 4
 382.408768098 636.847182339 357.814620754 609.900635488 339.187230459 579.419736092 c 4
 301.932449867 518.457937301 288 445.444101148 288 374 c 5
 288 302.555898852 301.932449867 229.542062699 339.187230459 168.580263908 c 4
 357.814620754 138.099364512 382.408768098 111.152817661 411.735969344 90.7572258754 c 4
 441.06317059 70.3616340899 474.928969672 56.7887943665 510 50 c 4
 531.720863017 45.7954336926 553.875934641 44 576 44 c 4
 598.124065359 44 620.279136983 45.7954336926 642 50 c 4
 677.071030328 56.7887943665 710.93682941 70.3616340899 740.264030656 90.7572258754 c 4
 769.591231902 111.152817661 794.185379246 138.099364512 812.812769541 168.580263908 c 4
 850.067550133 229.542062699 864 302.555898852 864 374 c 4
 864 445.444101148 850.067550133 518.457937301 812.812769541 579.419736092 c 4
 794.185379246 609.900635488 769.591231902 636.847182339 740.264030656 657.242774125 c 4
 710.93682941 677.63836591 677.071030328 691.211205634 642 698 c 4
 620.279136983 702.204566307 598.124065359 704 576 704 c 4
  Spiro
    576 704 o
    510 698 o
    288 374 o
    510 50 o
    576 44 o
    642 50 o
    864 374 o
    642 698 o
    0 0 z
  EndSpiro
EndSplineSet
Layer: 4
Substitution2: "'ss06' Style Set 6 lookup 5 subtable" three.russian
EndChar
StartChar: four
Encoding: 52 52 53
GlifName: four
Width: 1920
VWidth: 0
Flags: H
LayerCount: 5
Back
Fore
Layer: 2
SplineSet
1024 448 m 29
 174 448 l 29
 384 1408 l 1053
832 0 m 29
 832 1408 l 1053
EndSplineSet
Layer: 3
Layer: 4
Substitution2: "'ss12' Style Set 12 lookup 11 subtable" four.triangle
EndChar
StartChar: six
Encoding: 54 54 55
GlifName: six
Width: 1920
VWidth: 0
Flags: H
LayerCount: 5
Back
SplineSet
592 104 m 4
 779 104 800 261 800 448 c 4
 800 635 779 792 592 792 c 4
 405 792 384 635 384 448 c 4
 384 261 405 104 592 104 c 4
618 1424 m 4
 679 1424 749 1419 832 1408 c 5
 832 1288 l 5
 746 1300 674 1304 618 1304 c 4
 517 1304 452 1256 416 1173 c 4
 384 1100 384 998 384 896 c 6
 384 787 l 5
 394 787 l 5
 449 872 514 912 612 912 c 4
 760 912 857 829 900 712 c 4
 928 635 928 550 928 448 c 4
 928 366 928 271 896 184 c 4
 853 67 750 -16 592 -16 c 4
 434 -16 332 67 288 184 c 4
 263 251 256 321 256 415 c 6
 256 896 l 6
 256 1017 258 1122 296 1215 c 4
 343 1330 449 1424 618 1424 c 4
EndSplineSet
Fore
Layer: 2
SplineSet
592 852 m 4
 569.874950019 852 547.708987409 850.270562295 526 846 c 4
 485.669098677 838.066160283 447.076701406 820.262547848 416.241313788 793.083396194 c 4
 385.40592617 765.904244539 362.748306891 730.14912327 348.306511624 691.665854651 c 4
 319.422921089 614.699317412 319.999999999 530.20772261 320 448 c 4
 320 365.79227739 319.422921091 281.300682587 348.306511626 204.334145348 c 4
 362.748306893 165.850876729 385.405926172 130.09575546 416.241313789 102.916603806 c 4
 447.076701407 75.7374521517 485.669098677 57.9338397167 526 50 c 4
 547.708987409 45.7294377049 569.874950019 44 592 44 c 4
 614.125049981 44 636.291012591 45.7294377049 658 50 c 4
 698.330901323 57.9338397167 736.923298594 75.7374521519 767.758686212 102.916603806 c 4
 798.59407383 130.095755461 821.251693109 165.85087673 835.693488376 204.334145349 c 4
 864.577078911 281.300682588 864.000000001 365.79227739 864 448 c 4
 864 530.20772261 864.577078909 614.699317413 835.693488374 691.665854652 c 4
 821.251693107 730.149123271 798.594073828 765.90424454 767.758686211 793.083396194 c 4
 736.923298593 820.262547848 698.330901323 838.066160283 658 846 c 4
 636.291012591 850.270562295 614.125049981 852 592 852 c 4
  Spiro
    592 852 o
    526 846 o
    320 448 o
    526 50 o
    592 44 o
    658 50 o
    864 448 o
    658 846 o
    0 0 z
  EndSpiro
EndSplineSet
Layer: 3
Layer: 4
Substitution2: "'ss13' Style Set 13 lookup 12 subtable" six.straighter
EndChar
StartChar: nine
Encoding: 57 57 57
GlifName: nine
Width: 1920
VWidth: 0
Flags: H
LayerCount: 5
Back
SplineSet
560 1304 m 4
 373 1304 352 1147 352 960 c 4
 352 773 373 616 560 616 c 4
 747 616 768 773 768 960 c 4
 768 1147 747 1304 560 1304 c 4
288 124 m 5
 383 110 467 104 524 104 c 4
 640 104 699 151 736 235 c 4
 768 308 768 410 768 512 c 6
 768 621 l 5
 758 621 l 5
 703 536 638 496 540 496 c 4
 392 496 295 579 252 696 c 4
 224 773 224 858 224 960 c 4
 224 1042 224 1137 256 1224 c 4
 299 1341 402 1424 560 1424 c 4
 718 1424 820 1341 864 1224 c 4
 889 1157 896 1087 896 993 c 6
 896 512 l 6
 896 391 894 286 856 193 c 4
 809 79 702 -16 544 -16 c 4
 463 -16 389 -11 288 1 c 5
 288 124 l 5
EndSplineSet
Fore
Layer: 2
Layer: 3
Layer: 4
Substitution2: "'ss13' Style Set 13 lookup 12 subtable" nine.straighter
EndChar
StartChar: less
Encoding: 60 60 59
GlifName: less
Width: 1920
VWidth: 0
Flags: H
LayerCount: 5
Back
SplineSet
931.853419358 200.5819367 m 1
 860.146580642 99.4180632999 l 1
 259.146580642 525.4180633 l 1
 259.146580642 626.5819367 l 1
 860.146580642 1052.5819367 l 1
 931.853419358 951.4180633 l 1
 402.214320665 576 l 1
 931.853419358 200.5819367 l 1
EndSplineSet
Fore
Layer: 2
SplineSet
896 150 m 5
 295 576 l 5
 896 1002 l 1029
EndSplineSet
Layer: 3
Layer: 4
Substitution2: "Single Substitution lookup 65 subtable" less2
Substitution2: "Single Substitution lookup 64 subtable" less1
Substitution2: "Single Substitution lookup 41 subtable" larsenwork3
Substitution2: "Single Substitution lookup 32 subtable" larsenwork2
Substitution2: "Single Substitution lookup 27 subtable" larsenwork1
Substitution2: "Single Substitution lookup 26 subtable" larsenwork1
Substitution2: "Single Substitution lookup 20 subtable" larsenwork3
Substitution2: "Single Substitution lookup 16 subtable" larsenwork5
EndChar
StartChar: at
Encoding: 64 64 61
GlifName: at
Width: 1920
VWidth: 0
Flags: H
LayerCount: 5
Back
Fore
Layer: 2
SplineSet
896 402 m 6
 896 507 l 5
 886 507 l 5
 830 419 763 368 668 368 c 4
 615 368 507 394 443 490 c 4
 409 541 384 608 384 685 c 4
 384 767 409 854 472 917 c 4
 562 1007 672 1006 734 1006 c 6
 896 1006 l 5
 896 1054 896 1100 886 1139 c 4
 867.566599529 1210.89026184 821 1259 748 1278 c 4
 713.962976325 1286.85895137 673 1288 627 1288 c 4
 568 1288 513 1287 466 1275 c 4
 361.892057635 1248.41924876 296 1180 269 1075 c 4
 255.892773465 1024.02745236 256 972 256 913 c 6
 256 495 l 6
 256 436 256 384 269 333 c 4
 295.779120591 227.943449988 362 160 466 133 c 4
 512.951268933 120.810728258 568 120 627 120 c 4
 673 120 714 121 748 130 c 4
 820.920594459 149.302510298 868 197 886 269 c 4
 895.76488306 308.05953224 896 354 896 402 c 6
1024 391 m 6
 1024 346.304054054 1023.79231324 295.699782259 1011 244 c 4
 982 126 898.99131199 44.0341521428 781 14 c 4
 726 -3.5527136788e-15 674 0 627 0 c 4
 567 0 501.056010408 0.225631237525 433 17 c 4
 291 52 181.01412028 152.003371327 144 307 c 4
 128 374 128 436 128 495 c 6
 128 913 l 6
 128 972 128.006103738 1033.99854268 144 1101 c 4
 181 1256 291.116866649 1355.52921666 433 1391 c 4
 501 1408 567 1408 627 1408 c 4
 674 1408 725.995950206 1407.98408046 781 1394 c 4
 899 1364 981.529176941 1281.88329224 1011 1164 c 4
 1024 1112 1024 1061 1024 1016 c 6
 1024 391 l 6
896 805 m 6
 896 896 l 5
 732 896 l 6
 677 896 619.083272506 895.92123209 568 842 c 4
 532 804 512 746 512 687 c 4
 512 578 585 488 692 488 c 4
 782 488 843.967374495 548.013794261 874 619 c 4
 896 671 896 733 896 805 c 6
EndSplineSet
Layer: 3
Layer: 4
EndChar
StartChar: C
Encoding: 67 67 21
GlifName: C_
Width: 1024
VWidth: 0
Flags: W
HStem: -16 120<449.944 1018.69> 1176 120<450.414 988.93>
VStem: 112 128<350.344 929.656>
AnchorPoint: "bottom" 704 0 basechar 0
AnchorPoint: "top" 640 1280 basechar 0
LayerCount: 5
Back
SplineSet
642.951171875 1176 m 4
 561.853515625 1176.05761719 482.831054688 1158.25292969 420.48046875 1117.70117188 c 4
 352.921875 1073.76269531 301.728515625 999.077148438 274.807617188 915.107421875 c 4
 247.462890625 829.810546875 240 735.916015625 240 640 c 4
 240 544.083007812 247.461914062 450.189453125 274.807617188 364.892578125 c 4
 301.729492188 280.91796875 352.919921875 206.239257812 420.48046875 162.297851562 c 4
 482.82421875 121.75 561.861328125 103.943359375 642.952148438 104 c 1028
643.047851562 -16 m 4
 542.88671875 -16.0703125 437.119140625 5.427734375 347.51953125 63.701171875 c 4
 249.697265625 127.32421875 185.532226562 226.459960938 152.225585938 330.3515625 c 4
 119.342773438 432.920898438 112 538.6328125 112 640 c 4
 112 741.368164062 119.341796875 847.078125 152.225585938 949.647460938 c 4
 185.533203125 1053.54394531 249.6953125 1152.67578125 347.51953125 1216.29785156 c 4
 437.112304688 1274.56835938 542.89453125 1296.07128906 643.048828125 1296 c 1028
EndSplineSet
Fore
SplineSet
653 1296 m 0
 772 1296 888 1284 994 1267 c 1
 994 1147 l 1
 884 1164 762 1176 653 1176 c 0
 494.075075075 1176 397.186425859 1125.16190817 330 1028 c 0
 265 934 240 800 240 640 c 0
 240 480 265 346 330 252 c 0
 398 154 494 104 663 104 c 0
 779 104 909 117 1024 133 c 1
 1024 13 l 1
 913 -3 790 -16 663 -16 c 0
 457 -16 319 49 223 186 c 0
 138 307 112 461 112 640 c 0
 112 819 138 973 223 1094 c 0
 318.446353582 1229.87069157 456.681818182 1296 653 1296 c 0
EndSplineSet
Layer: 2
SplineSet
643 1236 m 0
 684.837145374 1235.97036613 726.614315112 1232.12965722 768 1226 c 0
 838.84667922 1215.50685823 908.562896614 1198.54555938 978 1181 c 0
 1036.08283412 1166.32346879 1094.03637254 1151.14047818 1152 1136 c 1
 976 704 l 1
 1152 144 l 1
 1094.03637254 128.859521819 1036.08283412 113.67653121 978 99 c 0
 908.562896614 81.4544406196 838.84667922 64.4931417678 768 54 c 0
 726.614315112 47.8703427815 684.837145374 44.0296338701 643 44 c 0
 552.373612422 43.9358079865 459.971767897 63.5891031375 384 113 c 0
 301.308728082 166.781161362 243.630686973 253.689312427 213.516290586 347.622176214 c 0
 183.401894199 441.55504 176 541.357920902 176 640 c 0
 176 738.642079098 183.401894199 838.44496 213.516290586 932.377823786 c 0
 243.630686973 1026.31068757 301.308728082 1113.21883864 384 1167 c 0
 459.971767897 1216.41089686 552.373612422 1236.06419201 643 1236 c 0
  Spiro
    643 1236 o
    768 1226 o
    978 1181 o
    1152 1136 v
    976 704 v
    1152 144 v
    978 99 o
    768 54 o
    643 44 o
    384 113 o
    176 640 o
    384 1167 o
    0 0 z
  EndSpiro
EndSplineSet
Layer: 3
Layer: 4
Position2: "Single Positioning lookup 21 subtable" dx=128 dy=0 dh=0 dv=0
Position2: "Single Positioning lookup 19 subtable" dx=-128 dy=0 dh=0 dv=0
Position2: "Single Positioning lookup 18 subtable" dx=0 dy=0 dh=0 dv=0
EndChar
StartChar: D
Encoding: 68 68 22
GlifName: D_
Width: 1024
VWidth: 0
Flags: W
HStem: 0 120<256 699.096> 1160 120<256 699.096>
VStem: 128 128<120 1160> 912 128<340.438 939.562>
AnchorPoint: "top" 576 1280 basechar 0
LayerCount: 5
Back
Fore
SplineSet
474 1280 m 2
 717 1280 860 1189 943 1067 c 0
 1025 947 1040 798 1040 640 c 0
 1040 482 1025 333 943 213 c 0
 860 91 717 0 474 0 c 2
 128 0 l 1
 128 1280 l 1
 474 1280 l 2
912 640 m 0
 912 807 893 935 825 1022 c 0
 768 1095 670 1160 474 1160 c 2
 256 1160 l 1
 256 120 l 1
 474 120 l 2
 670 120 768 185 825 258 c 0
 893 345 912 473 912 640 c 0
EndSplineSet
Layer: 2
Layer: 3
Layer: 4
Position2: "Single Positioning lookup 21 subtable" dx=128 dy=0 dh=0 dv=0
Position2: "Single Positioning lookup 19 subtable" dx=-128 dy=0 dh=0 dv=0
Position2: "Single Positioning lookup 18 subtable" dx=0 dy=0 dh=0 dv=0
EndChar
StartChar: E
Encoding: 69 69 23
GlifName: E_
Width: 1024
VWidth: 0
Flags: W
HStem: 0 120<384 1024> 648 120<384 896> 1160 120<384 1024>
VStem: 256 128<120 648 768 1160>
AnchorPoint: "top" 576 1280 basechar 0
LayerCount: 5
Back
Fore
SplineSet
256 1280 m 5
 1024 1280 l 5
 1024 1160 l 5
 384 1160 l 5
 384 768 l 1
 896 768 l 1
 896 648 l 1
 384 648 l 1
 384 120 l 1
 1024 120 l 1
 1024 0 l 1
 256 0 l 1
 256 1280 l 5
EndSplineSet
Layer: 2
Layer: 3
Layer: 4
Position2: "Single Positioning lookup 21 subtable" dx=128 dy=0 dh=0 dv=0
Position2: "Single Positioning lookup 19 subtable" dx=-128 dy=0 dh=0 dv=0
Position2: "Single Positioning lookup 18 subtable" dx=0 dy=0 dh=0 dv=0
EndChar
StartChar: G
Encoding: 71 71 24
GlifName: G_
Width: 1024
VWidth: 0
Flags: W
HStem: -16 120<449.967 893.406> 640 120<640 896> 1176 120<450.414 988.93>
VStem: 112 128<347.577 929.656> 896 128<118.439 640>
AnchorPoint: "bottom" 704 0 basechar 0
AnchorPoint: "top" 640 1280 basechar 0
LayerCount: 5
Back
SplineSet
653 1296 m 4
 772 1296 888 1284 994 1267 c 5
 994 1147 l 5
 884 1164 762 1176 653 1176 c 4
 494.075075075 1176 397.186425859 1125.16190817 330 1028 c 4
 265 934 240 800 240 640 c 4
 240 480 265 346 330 252 c 4
 398 154 494 104 663 104 c 4
 779 104 909 117 1024 133 c 5
 1024 13 l 5
 913 -3 790 -16 663 -16 c 4
 457 -16 319 49 223 186 c 4
 138 307 112 461 112 640 c 4
 112 819 138 973 223 1094 c 4
 318.446353582 1229.87069157 456.681818182 1296 653 1296 c 4
EndSplineSet
Fore
SplineSet
653 1296 m 4
 772 1296 888 1284 994 1267 c 5
 994 1147 l 5
 884 1164 762 1176 653 1176 c 4
 494.075075075 1176 397.186425861 1125.16190817 330 1028 c 4
 265 934 240 800 240 640 c 4
 240 480 264.848382966 345.89497749 330 252 c 4
 398 154 494 104 663 104 c 4
 737.455136193 104 817.677955374 112.125898199 896 124.365659735 c 5
 896 640 l 5
 640 640 l 5
 640 760 l 5
 1024 760 l 5
 1024 28 l 5
 913 3.72413793103 790 -16 663 -16 c 4
 457 -16 319.160543533 49.112638029 223 186 c 4
 138 307 112 461 112 640 c 4
 112 819 138 973 223 1094 c 4
 318.446353582 1229.87069157 456.681818182 1296 653 1296 c 4
EndSplineSet
Layer: 2
Layer: 3
Layer: 4
Position2: "Single Positioning lookup 21 subtable" dx=128 dy=0 dh=0 dv=0
Position2: "Single Positioning lookup 19 subtable" dx=-128 dy=0 dh=0 dv=0
Position2: "Single Positioning lookup 18 subtable" dx=0 dy=0 dh=0 dv=0
EndChar
StartChar: H
Encoding: 72 72 25
GlifName: H_
Width: 1024
VWidth: 0
Flags: W
HStem: 0 21G<128 256 896 1024> 640 120<256 896>
VStem: 128 128<0 640 760 1280> 896 128<0 640 760 1280>
AnchorPoint: "top" 576 1280 basechar 0
LayerCount: 5
Back
Fore
SplineSet
128 1280 m 5
 256 1280 l 5
 256 760 l 1
 896 760 l 1
 896 1280 l 5
 1024 1280 l 5
 1024 0 l 1
 896 0 l 1
 896 640 l 1
 256 640 l 1
 256 0 l 1
 128 0 l 1
 128 1280 l 5
EndSplineSet
Layer: 2
Layer: 3
Layer: 4
Position2: "Single Positioning lookup 21 subtable" dx=128 dy=0 dh=0 dv=0
Position2: "Single Positioning lookup 19 subtable" dx=-128 dy=0 dh=0 dv=0
Position2: "Single Positioning lookup 18 subtable" dx=0 dy=0 dh=0 dv=0
EndChar
StartChar: J
Encoding: 74 74 27
GlifName: J_
Width: 1024
VWidth: 0
Flags: W
HStem: -12 120<371.76 741.727> 1160 120<256 896>
VStem: 896 128<264.491 1160>
AnchorPoint: "top" 576 1280 basechar 0
LayerCount: 5
Back
SplineSet
896 512 m 6
 896 391 894 286 856 193 c 4
 809 78 703 -16 534 -16 c 4
 441 -16 341 -5 224 15 c 5
 224 136 l 5
 342 116 444 104 534 104 c 4
 635 104 700 152 736 235 c 4
 768 308 768 410 768 512 c 6
 768 1288 l 5
 256 1288 l 5
 256 1408 l 5
 469 1408 683 1408 896 1408 c 5
 896 512 l 6
EndSplineSet
Fore
SplineSet
896 1160 m 5
 256 1160 l 5
 256 1280 l 5
 1024 1280 l 5
 1024 501 l 2
 1024 401 1024 269 926 144 c 0
 852.526007662 50.2831730379 723.119438906 -12 565.002929688 -12 c 0
 386.759394453 -12 244.114161024 64.5070256216 150.51171875 145.775390625 c 1
 225.48828125 241.223632812 l 1
 302.514286865 173.593887252 421.452630419 108 565.002929688 108 c 0
 680.096737834 108 771.531442868 150.685573624 824 217 c 0
 896 308 896 406 896 501 c 2
 896 1160 l 5
EndSplineSet
Layer: 2
Layer: 3
Layer: 4
EndChar
StartChar: K
Encoding: 75 75 28
GlifName: K_
Width: 1920
VWidth: 0
Flags: H
LayerCount: 5
Back
Fore
Layer: 2
SplineSet
502 768 m 5
 1052 -138 l 1029
320 520 m 5
 1152 1806 l 1029
384 1408 m 5
 384 0 l 5
 256 0 l 5
 256 1408 l 5
 384 1408 l 5
512 752 m 5
 1052 -138 l 1029
320 520 m 5
 1152 1806 l 1029
EndSplineSet
Layer: 3
Layer: 4
EndChar
StartChar: M
Encoding: 77 77 18
GlifName: M_
Width: 1024
VWidth: 0
Flags: W
HStem: 0 21G<128 256 896 1024>
VStem: 128 128<0 1022> 896 128<0 1022>
LayerCount: 5
Back
Fore
SplineSet
256 0 m 1
 128 0 l 1
 128 1280 l 5
 256 1280 l 5
 571 652 l 5
 582 652 l 5
 896 1280 l 5
 1024 1280 l 5
 1024 0 l 1
 896 0 l 1
 896 1022 l 5
 886 1022 l 5
 631 512 l 5
 521 512 l 5
 266 1022 l 5
 256 1022 l 5
 256 0 l 1
EndSplineSet
Layer: 2
SplineSet
192 0 m 29
 192 1521 l 29
 576 900 l 29
 960 1521 l 29
 960 0 l 1053
EndSplineSet
Layer: 3
Layer: 4
Position2: "Single Positioning lookup 21 subtable" dx=128 dy=0 dh=0 dv=0
Position2: "Single Positioning lookup 19 subtable" dx=-128 dy=0 dh=0 dv=0
Position2: "Single Positioning lookup 18 subtable" dx=0 dy=0 dh=0 dv=0
EndChar
StartChar: N
Encoding: 78 78 30
GlifName: N_
Width: 1024
VWidth: 0
Flags: W
HStem: 0 21G<128 256 883.885 1024>
VStem: 128 128<0 1040> 896 128<240 1280>
AnchorPoint: "bottom" 576 0 basechar 0
AnchorPoint: "top" 576 1280 basechar 0
LayerCount: 5
Back
Fore
SplineSet
256 0 m 1
 128 0 l 1
 128 1280 l 1
 255 1280 l 1
 886 240 l 1
 896 240 l 1
 896 1280 l 1
 1024 1280 l 1
 1024 0 l 1
 896 0 l 1
 266 1040 l 5
 256 1040 l 5
 256 0 l 1
EndSplineSet
Layer: 2
SplineSet
192 0 m 5
 192 1521 l 5
 960 15 l 5
 960 1536 l 1029
EndSplineSet
Layer: 3
Layer: 4
Position2: "Single Positioning lookup 21 subtable" dx=128 dy=0 dh=0 dv=0
Position2: "Single Positioning lookup 19 subtable" dx=-128 dy=0 dh=0 dv=0
Position2: "Single Positioning lookup 18 subtable" dx=0 dy=0 dh=0 dv=0
EndChar
StartChar: O
Encoding: 79 79 31
GlifName: O_
Width: 1024
VWidth: 0
Flags: W
HStem: -16 120<420.424 731.576> 1176 120<420.424 731.576>
VStem: 112 128<318.337 961.663> 912 128<318.337 961.663>
AnchorPoint: "top" 576 1280 basechar 0
LayerCount: 5
Back
SplineSet
576 1176 m 4
 520.337890625 1176 464.83984375 1161.89941406 418.173828125 1134.26953125 c 4
 382.727539062 1113.28320312 351.111328125 1083.56738281 326.436523438 1048.40527344 c 4
 301.682617188 1013.12988281 283.16015625 971.700195312 270.365234375 927.578125 c 4
 244.522460938 838.462890625 240 740.57421875 240 640 c 4
 240 539.42578125 244.522460938 441.538085938 270.365234375 352.420898438 c 4
 283.159179688 308.30078125 301.681640625 266.87109375 326.4375 231.592773438 c 4
 351.112304688 196.430664062 382.7265625 166.716796875 418.173828125 145.73046875 c 4
 464.83984375 118.100585938 520.337890625 104 576 104 c 4
 631.662109375 104 687.16015625 118.100585938 733.826171875 145.73046875 c 4
 769.272460938 166.716796875 800.888671875 196.431640625 825.563476562 231.594726562 c 4
 850.317382812 266.870117188 868.840820312 308.30078125 881.635742188 352.421875 c 4
 907.477539062 441.537109375 912 539.42578125 912 640 c 4
 912 740.575195312 907.477539062 838.461914062 881.634765625 927.579101562 c 4
 868.83984375 971.700195312 850.318359375 1013.12890625 825.563476562 1048.40625 c 4
 800.88671875 1083.56933594 769.2734375 1113.28222656 733.826171875 1134.26953125 c 4
 687.16015625 1161.89941406 631.662109375 1176 576 1176 c 4
  Spiro
    576 1176 o
    520.768 1171.33 o
    467.411 1157.35 o
    418.174 1134.27 o
    384.152 1110.52 o
    353.281 1081.6 o
    326.437 1048.41 o
    303.762 1011.25 o
    285.071 970.633 o
    270.365 927.578 o
    251.021 835.858 o
    242.125 739.355 o
    240 640 o
    242.125 540.645 o
    251.021 444.142 o
    270.365 352.421 o
    285.071 309.368 o
    303.761 268.754 o
    326.438 231.593 o
    353.281 198.399 o
    384.152 169.478 o
    418.174 145.73 o
    467.411 122.65 o
    520.768 108.67 o
    576 104 o
    631.232 108.67 o
    684.589 122.65 o
    733.826 145.73 o
    767.848 169.478 o
    798.719 198.4 o
    825.563 231.595 o
    848.238 268.755 o
    866.929 309.368 o
    881.636 352.422 o
    900.98 444.142 o
    909.875 540.645 o
    912 640 o
    909.875 739.356 o
    900.979 835.858 o
    881.635 927.579 o
    866.929 970.633 o
    848.239 1011.25 o
    825.563 1048.41 o
    798.718 1081.6 o
    767.848 1110.52 o
    733.826 1134.27 o
    684.589 1157.35 o
    631.232 1171.33 o
    0 0 z
  EndSpiro
576 1296 m 4
 654.365234375 1296 733.51171875 1276.3828125 802.173828125 1235.73046875 c 4
 854.51171875 1204.74316406 898.572265625 1162.70214844 932.497070312 1114.35839844 c 4
 966.341796875 1066.12890625 989.533203125 1012.91992188 1005.15234375 959.059570312 c 4
 1036.13574219 852.21484375 1040 743.459960938 1040 640 c 4
 1040 536.540039062 1036.13574219 427.786132812 1005.15136719 320.939453125 c 4
 989.532226562 267.080078125 966.342773438 213.873046875 932.497070312 165.640625 c 4
 898.5703125 117.295898438 854.512695312 75.2568359375 802.173828125 44.26953125 c 4
 733.51171875 3.6171875 654.365234375 -16 576 -16 c 4
 497.634765625 -16 418.48828125 3.6171875 349.826171875 44.26953125 c 4
 297.48828125 75.2568359375 253.428710938 117.296875 219.501953125 165.641601562 c 4
 185.658203125 213.872070312 162.467773438 267.080078125 146.84765625 320.940429688 c 4
 115.864257812 427.78515625 112 536.540039062 112 640 c 4
 112 743.4609375 115.864257812 852.21484375 146.84765625 959.059570312 c 4
 162.466796875 1012.91992188 185.657226562 1066.12792969 219.502929688 1114.359375 c 4
 253.4296875 1162.70410156 297.487304688 1204.7421875 349.826171875 1235.73046875 c 4
 418.48828125 1276.3828125 497.634765625 1296 576 1296 c 4
  Spiro
    576 1296 o
    654.131 1289.42 o
    730.509 1269.4 o
    802.174 1235.73 o
    851.637 1201.27 o
    895.303 1160.38 o
    932.497 1114.36 o
    962.878 1064.68 o
    986.916 1012.49 o
    1005.15 959.06 o
    1027.94 851.952 o
    1037.86 744.852 o
    1040 640 o
    1037.86 535.148 o
    1027.94 428.048 o
    1005.15 320.939 o
    986.916 267.511 o
    962.878 215.32 o
    932.497 165.641 o
    895.302 119.617 o
    851.637 78.7271 o
    802.174 44.2695 o
    730.509 10.6032 o
    654.131 -9.42165 o
    576 -16 o
    497.869 -9.42165 o
    421.491 10.6032 o
    349.826 44.2695 o
    300.363 78.7274 o
    256.697 119.618 o
    219.502 165.642 o
    189.122 215.32 o
    165.084 267.511 o
    146.848 320.94 o
    124.058 428.048 o
    114.144 535.148 o
    112 640 o
    114.144 744.852 o
    124.058 851.953 o
    146.848 959.06 o
    165.084 1012.49 o
    189.122 1064.68 o
    219.503 1114.36 o
    256.698 1160.38 o
    300.363 1201.27 o
    349.826 1235.73 o
    421.491 1269.4 o
    497.869 1289.42 o
    0 0 z
  EndSpiro
EndSplineSet
Fore
SplineSet
576 1176 m 4
 460.93970337 1176 376.459130021 1120.28508676 326.436523438 1048.40527344 c 0
 252.944993401 942.801870882 240 797.851954602 240 640 c 0
 240 482.1484375 252.9453125 337.198242188 326.436523438 231.594726562 c 0
 376.458984375 159.71484375 460.939453125 104 576 104 c 4
 691.060546875 104 775.541015625 159.71484375 825.563476562 231.594726562 c 4
 899.0546875 337.198242188 912 482.1484375 912 640 c 4
 912 797.8515625 899.0546875 942.801757812 825.563476562 1048.40527344 c 4
 775.541015625 1120.28515625 691.060546875 1176 576 1176 c 4
  Spiro
    576 1176 o
    520.768 1171.33 o
    467.411 1157.35 o
    418.174 1134.27 o
    384.152 1110.52 o
    353.281 1081.6 o
    326.437 1048.41 o
    303.762 1011.25 o
    285.071 970.633 o
    270.365 927.578 o
    251.021 835.858 o
    242.125 739.355 o
    240 640 o
    242.125 540.645 o
    251.021 444.142 o
    270.365 352.421 o
    285.071 309.368 o
    303.761 268.754 o
    326.438 231.593 o
    353.281 198.399 o
    384.152 169.478 o
    418.174 145.73 o
    467.411 122.65 o
    520.768 108.67 o
    576 104 o
    631.232 108.67 o
    684.589 122.65 o
    733.826 145.73 o
    767.848 169.478 o
    798.719 198.4 o
    825.563 231.595 o
    848.238 268.755 o
    866.929 309.368 o
    881.636 352.422 o
    900.98 444.142 o
    909.875 540.645 o
    912 640 o
    909.875 739.356 o
    900.979 835.858 o
    881.635 927.579 o
    866.929 970.633 o
    848.239 1011.25 o
    825.563 1048.41 o
    798.718 1081.6 o
    767.848 1110.52 o
    733.826 1134.27 o
    684.589 1157.35 o
    631.232 108.67 o
    684.589 122.65 o
    733.826 145.73 o
    767.848 169.479 o
    798.718 198.4 o
    825.563 231.594 o
    848.239 268.754 o
    866.929 309.367 o
    881.635 352.421 o
    900.979 444.142 o
    909.875 540.644 o
    912 640 o
    909.875 739.355 o
    900.98 835.858 o
    881.636 927.578 o
    866.929 970.632 o
    848.238 1011.25 o
    825.563 1048.41 o
    798.719 1081.6 o
    767.848 1110.52 o
    733.826 1134.27 o
    684.589 1157.35 o
    631.232 1171.33 o
    576 1176 o
    520.768 1171.33 o
    467.411 1157.35 o
    418.174 1134.27 o
    384.152 1110.52 o
    353.281 1081.6 o
    326.438 1048.41 o
    303.761 1011.25 o
    285.071 970.632 o
    270.365 927.579 o
    251.021 835.858 o
    242.125 739.355 o
    240 640 o
    242.125 540.645 o
    251.021 444.142 o
    270.365 352.422 o
    285.071 309.367 o
    303.762 268.754 o
    326.437 231.595 o
    353.281 198.401 o
    384.152 169.479 o
    418.174 145.73 o
    467.411 122.65 o
    520.768 108.67 o
    576 104 o
    631.232 108.67 o
    684.589 122.65 o
    733.826 145.73 o
    767.848 169.479 o
    798.719 198.401 o
    825.563 231.595 o
    848.238 268.754 o
    866.929 309.367 o
    881.635 352.422 o
    900.979 444.142 o
    909.875 540.645 o
    912 640 o
    909.875 739.355 o
    900.979 835.858 o
    881.635 927.579 o
    866.929 970.632 o
    848.239 1011.25 o
    825.562 1048.41 o
    798.719 1081.6 o
    767.848 1110.52 o
    733.826 1134.27 o
    684.589 1157.35 o
    631.232 1171.33 o
    576 1176 o
    520.768 1171.33 o
    467.411 1157.35 o
    418.174 1134.27 o
    384.152 1110.52 o
    353.281 1081.6 o
    326.437 1048.41 o
    303.762 1011.25 o
    285.071 970.632 o
    270.364 927.578 o
    251.02 835.858 o
    242.125 739.355 o
    240 640 o
    242.125 540.644 o
    251.021 444.142 o
    270.365 352.421 o
    285.071 309.367 o
    303.761 268.754 o
    326.437 231.594 o
    353.282 198.4 o
    384.152 169.479 o
    418.174 145.73 o
    467.411 122.65 o
    520.768 108.67 o
    467.411 1157.35 o
    418.174 1134.27 o
    384.152 1110.52 o
    353.282 1081.6 o
    326.437 1048.41 o
    303.761 1011.25 o
    285.071 970.633 o
    270.365 927.579 o
    251.021 835.858 o
    242.125 739.356 o
    240 640 o
    242.125 540.645 o
    251.02 444.142 o
    270.364 352.422 o
    285.071 309.368 o
    303.762 268.755 o
    326.437 231.595 o
    353.281 198.4 o
    384.152 169.478 o
    418.174 145.73 o
    467.411 122.65 o
    520.768 108.67 o
    576 104 o
    631.232 108.67 o
    684.589 122.65 o
    733.826 145.73 o
    767.848 169.478 o
    798.719 198.399 o
    825.562 231.593 o
    848.239 268.754 o
    866.929 309.368 o
    881.635 352.421 o
    900.979 444.142 o
    909.875 540.645 o
    912 640 o
    909.875 739.355 o
    900.979 835.858 o
    881.635 927.578 o
    866.929 970.633 o
    848.238 1011.25 o
    825.563 1048.41 o
    798.719 1081.6 o
    767.848 1110.52 o
    733.826 1134.27 o
    684.589 1157.35 o
    631.232 1171.33 o
    0 0 z
  EndSpiro
576 1296 m 4
 740.823242188 1296 862.130859375 1214.44042969 932.497070312 1114.359375 c 4
 1023.62597656 984.748046875 1040 816.600585938 1040 640 c 4
 1040 463.399414062 1023.62597656 295.251953125 932.497070312 165.640625 c 4
 862.130859375 65.5595703125 740.823242188 -16 576 -16 c 4
 411.176757812 -16 289.869140625 65.5595703125 219.502929688 165.640625 c 0
 128.374023438 295.251953125 112 463.399414062 112 640 c 0
 112 816.601004216 128.374428744 984.748101035 219.502929688 1114.359375 c 0
 289.86903679 1214.44047686 411.176495743 1296 576 1296 c 4
  Spiro
    730.509 1269.4 o
    802.174 1235.73 o
    851.637 1201.27 o
    895.302 1160.38 o
    932.497 1114.36 o
    962.878 1064.68 o
    986.916 1012.49 o
    1005.15 959.06 o
    1027.94 851.953 o
    1037.86 744.852 o
    1040 640 o
    1037.86 535.148 o
    1027.94 428.048 o
    1005.15 320.94 o
    986.916 267.511 o
    962.878 215.32 o
    932.498 165.642 o
    895.303 119.618 o
    851.637 78.7274 o
    802.174 44.2695 o
    730.509 10.6032 o
    654.131 -9.42165 o
    576 -16 o
    497.869 -9.42165 o
    421.491 10.6032 o
    349.826 44.2695 o
    300.363 78.7271 o
    256.698 119.617 o
    219.503 165.641 o
    189.122 215.32 o
    165.084 267.511 o
    146.849 320.939 o
    124.058 428.048 o
    114.144 535.148 o
    112 640 o
    114.144 744.852 o
    124.058 851.952 o
    146.848 959.06 o
    165.084 1012.49 o
    189.122 1064.68 o
    219.503 1114.36 o
    256.697 1160.38 o
    300.363 1201.27 o
    349.826 1235.73 o
    421.491 1269.4 o
    497.869 1289.42 o
    576 -16 o
    497.869 -9.42165 o
    421.491 10.6032 o
    349.826 44.2695 o
    300.363 78.7276 o
    256.697 119.618 o
    219.503 165.642 o
    189.122 215.32 o
    165.084 267.51 o
    146.848 320.94 o
    124.058 428.048 o
    114.144 535.148 o
    112 640 o
    114.144 744.852 o
    124.058 851.952 o
    146.849 959.061 o
    165.084 1012.49 o
    189.122 1064.68 o
    219.503 1114.36 o
    256.698 1160.38 o
    300.363 1201.27 o
    349.826 1235.73 o
    421.491 1269.4 o
    497.869 1289.42 o
    576 1296 o
    654.131 1289.42 o
    730.509 1269.4 o
    802.174 1235.73 o
    851.637 1201.27 o
    895.303 1160.38 o
    932.498 1114.36 o
    962.878 1064.68 o
    986.916 1012.49 o
    1005.15 959.06 o
    1027.94 851.952 o
    1037.86 744.852 o
    1040 640 o
    1037.86 535.148 o
    1027.94 428.047 o
    1005.15 320.94 o
    986.916 267.511 o
    962.878 215.32 o
    932.497 165.641 o
    895.302 119.617 o
    851.637 78.7276 o
    802.174 44.2695 o
    730.509 10.6032 o
    654.131 -9.42165 o
    421.491 10.6032 o
    349.826 44.2695 o
    300.363 78.7276 o
    256.698 119.617 o
    219.503 165.641 o
    189.122 215.32 o
    165.084 267.511 o
    146.848 320.94 o
    124.058 428.047 o
    114.144 535.148 o
    112 640 o
    114.144 744.852 o
    124.058 851.952 o
    146.848 959.06 o
    165.084 1012.49 o
    189.122 1064.68 o
    219.502 1114.36 o
    256.697 1160.38 o
    300.363 1201.27 o
    349.826 1235.73 o
    421.491 1269.4 o
    497.869 1289.42 o
    576 1296 o
    654.131 1289.42 o
    730.509 1269.4 o
    802.174 1235.73 o
    851.637 1201.27 o
    895.302 1160.38 o
    932.497 1114.36 o
    962.878 1064.68 o
    986.916 1012.49 o
    1005.15 959.061 o
    1027.94 851.952 o
    1037.86 744.852 o
    1040 640 o
    1037.86 535.148 o
    1027.94 428.048 o
    1005.15 320.94 o
    986.916 267.51 o
    962.878 215.32 o
    932.497 165.642 o
    895.303 119.618 o
    851.637 78.7276 o
    802.174 44.2695 o
    730.509 10.6032 o
    654.131 -9.42165 o
    576 -16 o
    654.131 1289.42 o
    730.509 1269.4 o
    802.174 1235.73 o
    851.637 1201.27 o
    895.303 1160.38 o
    932.497 1114.36 o
    962.878 1064.68 o
    986.916 1012.49 o
    1005.15 959.06 o
    1027.94 851.952 o
    1037.86 744.852 o
    1040 640 o
    1037.86 535.148 o
    1027.94 428.048 o
    1005.15 320.939 o
    986.916 267.511 o
    962.878 215.32 o
    932.497 165.641 o
    895.302 119.617 o
    851.637 78.7271 o
    802.174 44.2695 o
    730.509 10.6032 o
    654.131 -9.42165 o
    576 -16 o
    497.869 -9.42165 o
    421.491 10.6032 o
    349.826 44.2695 o
    300.363 78.7274 o
    256.697 119.618 o
    219.502 165.642 o
    189.122 215.32 o
    165.084 267.511 o
    146.848 320.94 o
    124.058 428.048 o
    114.144 535.148 o
    112 640 o
    114.144 744.852 o
    124.058 851.953 o
    146.848 959.06 o
    165.084 1012.49 o
    189.122 1064.68 o
    219.503 1114.36 o
    256.698 1160.38 o
    300.363 1201.27 o
    349.826 1235.73 o
    421.491 1269.4 o
    497.869 1289.42 o
    0 0 z
  EndSpiro
EndSplineSet
Layer: 2
SplineSet
576 1236 m 0
 643.013356877 1236 710.33555147 1219.14090473 768 1185 c 0
 811.892437758 1159.01297378 849.729868788 1123.13619451 879.02981094 1081.38233225 c 0
 908.329753092 1039.62846998 929.186990385 992.309443727 943.393435169 943.319153358 c 0
 971.806324738 845.338572619 976 742.017089233 976 640 c 0
 976 537.982910767 971.806324738 434.661427382 943.393435169 336.680846642 c 0
 929.186990385 287.690556273 908.329753092 240.371530017 879.02981094 198.617667755 c 0
 849.729868788 156.863805493 811.892437758 120.987026217 768 95 c 0
 710.33555147 60.8590952725 643.013356877 44 576 44 c 0
 508.986643123 44 441.66444853 60.8590952725 384 95 c 0
 340.107562242 120.987026217 302.270131212 156.863805493 272.97018906 198.617667755 c 0
 243.670246908 240.371530017 222.813009615 287.690556273 208.606564831 336.680846642 c 0
 180.193675262 434.661427381 176 537.982910767 176 640 c 0
 176 742.017089233 180.193675262 845.338572618 208.606564831 943.319153358 c 0
 222.813009615 992.309443727 243.670246908 1039.62846998 272.97018906 1081.38233225 c 0
 302.270131212 1123.13619451 340.107562242 1159.01297378 384 1185 c 0
 441.66444853 1219.14090473 508.986643123 1236 576 1236 c 0
  Spiro
    576 1236 o
    768 1185 o
    976 640 o
    768 95 o
    576 44 o
    384 95 o
    176 640 o
    384 1185 o
    0 0 z
  EndSpiro
EndSplineSet
Layer: 3
SplineSet
576 1364 m 0
 643.232974455 1364 710.624752961 1346.04787984 768 1311 c 0
 815.850534785 1281.77032553 856.230827797 1240.84198324 886.44733169 1193.60840999 c 0
 916.663835583 1146.37483675 936.888479806 1093.21313869 949.871199277 1038.6650265 c 0
 975.836638219 929.568802112 976 816.143614152 976 704 c 0
 976 591.856385848 975.836638219 478.431197888 949.871199277 369.3349735 c 0
 936.888479806 314.786861307 916.663835583 261.625163249 886.44733169 214.391590007 c 0
 856.230827797 167.158016764 815.850534786 126.229674468 768 97 c 0
 710.624752961 61.9521201594 643.232974455 44 576 44 c 0
 508.767025545 44 441.375247039 61.9521201594 384 97 c 0
 336.149465215 126.229674468 295.769172203 167.158016764 265.55266831 214.391590006 c 0
 235.336164417 261.625163249 215.111520194 314.786861307 202.128800723 369.3349735 c 0
 176.163361781 478.431197888 176 591.856385848 176 704 c 0
 176 816.143614152 176.163361781 929.568802112 202.128800723 1038.6650265 c 0
 215.111520194 1093.21313869 235.336164417 1146.37483675 265.55266831 1193.60840999 c 0
 295.769172203 1240.84198324 336.149465214 1281.77032553 384 1311 c 0
 441.375247039 1346.04787984 508.767025545 1364 576 1364 c 0
  Spiro
    576 1364 o
    768 1311 o
    976 704 o
    768 97 o
    576 44 o
    384 97 o
    176 704 o
    384 1311 o
    0 0 z
  EndSpiro
EndSplineSet
Layer: 4
Position2: "Single Positioning lookup 21 subtable" dx=128 dy=0 dh=0 dv=0
Position2: "Single Positioning lookup 19 subtable" dx=-128 dy=0 dh=0 dv=0
Position2: "Single Positioning lookup 18 subtable" dx=0 dy=0 dh=0 dv=0
EndChar
StartChar: P
Encoding: 80 80 32
GlifName: P_
Width: 1920
VWidth: 0
InSpiro: 1
Flags: H
LayerCount: 5
Back
Fore
Layer: 2
SplineSet
636 1220 m 0
 826.85625 1220 960 1087.17265625 960 896 c 0
 960 704.82734375 826.85625 572 636 572 c 0
 445.14375 572 312 704.82734375 312 896 c 0
 312 1087.17265625 445.14375 1220 636 1220 c 0
  Spiro
    636 1220 o
    804.681 1178.56 o
    918.493 1064.82 o
    960 896 o
    918.493 727.178 o
    804.681 613.437 o
    636 572 o
    467.319 613.437 o
    353.507 727.178 o
    312 896 o
    353.507 1064.82 o
    467.319 1178.56 o
    0 0 z
  EndSpiro
EndSplineSet
Layer: 3
SplineSet
589 1220 m 2
 635.752175518 1220 682.946699288 1219.13447431 728.391308338 1208.15479198 c 0
 773.835917388 1197.17510966 817.040106394 1176.19768337 852.536936916 1145.7716922 c 0
 888.033767436 1115.34570103 915.580783473 1076.00384804 933.487063023 1032.8166848 c 0
 951.393342573 989.629521565 960.000000002 942.752175518 960 896 c 0
 960 849.247824482 951.39334257 802.370478434 933.487063018 759.183315199 c 0
 915.580783466 715.996151964 888.033767427 676.654298972 852.536936906 646.228307803 c 0
 817.040106386 615.802316635 773.835917382 594.824890344 728.391308333 583.845208019 c 0
 682.946699284 572.865525694 635.752175517 572.000000001 589 572 c 2
 128 572 l 1
 128 1220 l 1
 589 1220 l 2
  Spiro
    589 1220 ]
    960 896 o
    589 572 [
    128 572 v
    128 1220 v
    0 0 z
  EndSpiro
EndSplineSet
Layer: 4
Position2: "Single Positioning lookup 21 subtable" dx=128 dy=0 dh=0 dv=0
Position2: "Single Positioning lookup 19 subtable" dx=-128 dy=0 dh=0 dv=0
Position2: "Single Positioning lookup 18 subtable" dx=0 dy=0 dh=0 dv=0
EndChar
StartChar: T
Encoding: 84 84 36
GlifName: T_
Width: 1024
VWidth: 0
Flags: W
HStem: 0 21G<512 640> 1160 120<128 512 640 1024>
VStem: 512 128<0 1160>
AnchorPoint: "top" 576 1280 basechar 0
LayerCount: 5
Back
Fore
SplineSet
1024 1280 m 5
 1024 1160 l 5
 640 1160 l 5
 640 0 l 1
 512 0 l 1
 512 1160 l 5
 128 1160 l 5
 128 1280 l 5
 1024 1280 l 5
EndSplineSet
Layer: 2
Layer: 3
Layer: 4
EndChar
StartChar: grave
Encoding: 96 96 17
GlifName: grave
Width: 1920
VWidth: 0
LayerCount: 5
Back
Fore
Layer: 2
SplineSet
216 1603 m 5
 576 768 l 1029
EndSplineSet
Layer: 3
Layer: 4
EndChar
StartChar: k
Encoding: 107 107 7
GlifName: k
Width: 1920
VWidth: 0
Flags: H
LayerCount: 5
Back
Fore
Layer: 2
SplineSet
515 527 m 29
 1460 -418 l 1053
330 354 m 29
 1107 1131 l 1053
EndSplineSet
Layer: 3
Layer: 4
Position2: "Single Positioning lookup 17 subtable" dx=-128 dy=0 dh=0 dv=0
Position2: "Single Positioning lookup 16 subtable" dx=-128 dy=0 dh=0 dv=0
Position2: "Single Positioning lookup 15 subtable" dx=0 dy=0 dh=0 dv=0
Position2: "Single Positioning lookup 13 subtable" dx=-128 dy=0 dh=0 dv=0
Position2: "Single Positioning lookup 9 subtable" dx=128 dy=0 dh=0 dv=0
Position2: "Single Positioning lookup 8 subtable" dx=128 dy=0 dh=0 dv=0
Position2: "Single Positioning lookup 7 subtable" dx=0 dy=0 dh=0 dv=0
Position2: "Single Positioning lookup 3 subtable" dx=128 dy=0 dh=0 dv=0
EndChar
StartChar: braceleft
Encoding: 123 123 62
GlifName: braceleft
Width: 1920
VWidth: 0
Flags: H
CounterMasks: 1 e0
LayerCount: 5
Back
Fore
Layer: 2
SplineSet
256 703 m 5
 333.445417677 702.89678855 412.590410469 686.465515421 478 645 c 4
 510.941316011 624.117302879 539.571697007 595.426230467 556.378441743 560.230340495 c 4
 564.781814111 542.632395509 570.189315691 523.668689539 573.000642208 504.371001125 c 4
 575.811968726 485.073312712 576 465.501393153 576 446 c 6
 576 61 l 6
 576 41.4986068473 576.188031274 21.9266872881 578.999357792 2.62899887457 c 4
 581.810684309 -16.668689539 587.218185889 -35.632395509 595.621558257 -53.2303404953 c 4
 612.428302993 -88.4262304676 641.058683989 -117.117302879 674 -138 c 4
 739.409589531 -179.465515421 818.554582323 -195.89678855 896 -196 c 5
 -284 -340 l 5
 256 703 l 5
  Spiro
    256 703 v
    478 645 o
    576 446 [
    576 61 ]
    674 -138 o
    896 -196 v
    -284 -340 v
    0 0 z
  EndSpiro
EndSplineSet
Layer: 3
Layer: 4
EndChar
StartChar: uni00B3
Encoding: 179 179 309
GlifName: uni00B_3
Width: 1920
VWidth: 0
Flags: H
LayerCount: 5
Back
SplineSet
674 1150 m 5xd8
 749 1111 780 1048 780 983 c 4
 780 836 652 752 508 752 c 4
 415 752 333 759 256 767 c 5
 256 887 l 5
 332 880 431 872 508 872 c 4
 586 872 652 907 652 983 c 4
 652 1041 607 1077 554 1087 c 4
 528 1092 497 1092 462 1092 c 6
 384 1092 l 5
 384 1212 l 5
 462 1212 l 6
 496 1212 525 1213 550 1218 c 4
 602 1229 643 1264 643 1322 c 4
 643 1395 583 1432 506 1432 c 4xd8
 429.826086957 1432 335.913043478 1422 266 1415 c 5xe8
 266 1535 l 5
 339.043478261 1544 417.304347826 1552 506 1552 c 4
 658 1552 771 1460 771 1322 c 4
 771 1261 746 1201 674 1160 c 5
 674 1150 l 5xd8
EndSplineSet
Fore
Layer: 2
Layer: 3
Layer: 4
EndChar
StartChar: onehalf
Encoding: 189 189 307
GlifName: onehalf
Width: 1920
VWidth: 0
Flags: H
LayerCount: 5
Back
SplineSet
640 1492 m 0
 760.168303987 1492 844 1420.66641645 844 1318 c 4
 844 1215.33355713 760.168303987 1144 640 1144 c 4
 519.831665039 1144 436 1215.33355713 436 1318 c 4
 436 1420.66641645 519.831665039 1492 640 1492 c 0
EndSplineSet
Fore
Layer: 2
SplineSet
320 1421 m 0
 375.989987866 1439.87146298 432.560983093 1457.15188847 490 1471 c 0
 538.174341841 1482.61446861 587.275760666 1492.00003711 636.82936611 1492.00003711 c 0
 665.83878467 1491.99372883 694.94290441 1488.55037039 722.46106664 1479.46793243 c 0
 749.918257465 1470.40561824 775.630121075 1455.52049948 796 1435 c 0
 826.728542268 1404.04424233 844.004743873 1360.8080437 844.004743873 1316.70908966 c 0
 844.004743873 1285.12984839 835.496509752 1253.72208366 820.571533319 1225.88680459 c 0
 805.443200625 1197.67226339 783.831462586 1173.20705943 759 1153 c 0
 698.766234317 1103.98366523 621.472218731 1080.74354761 558 1036 c 0
 524.230971444 1012.19515802 494.473008141 982.143411005 473.879496164 946.325467797 c 0
 453.285984186 910.50752459 442.035085612 869.316056929 442 828 c 1
 896 828 l 1025
  Spiro
    320 1421 {
    490 1471 o
    637 1492 o
    796 1435 o
    844 1318 o
    759 1153 o
    558 1036 o
    442 828 v
    896 828 v
    0 0 z
  EndSpiro
EndSplineSet
Layer: 3
Layer: 4
EndChar
StartChar: threequarters
Encoding: 190 190 308
GlifName: threequarters
Width: 1920
VWidth: 0
Flags: H
LayerCount: 5
Back
SplineSet
369 1469 m 4
 301.379497815 1453.17670974 234.319644586 1435.05796832 167 1418 c 5
 0 1323 l 5
 384 1152 l 5
 482 1152 l 6
 516.126555676 1152 550.526782309 1152.08878773 583.953388879 1158.96510764 c 4
 617.37999545 1165.84142755 649.76778307 1180.02268442 675 1203 c 4
 707.913737451 1232.97236962 727.000107212 1277.3019775 727.000107212 1321.81727202 c 4
 727 1322 l 4
 726.944911076 1368.94300597 705.698300776 1415.51590306 670 1446 c 4
 650.425429993 1462.71544798 626.981591421 1474.64822754 602.293956936 1481.93456377 c 4
 577.640766858 1489.21073405 551.812608128 1492.00001633 526.107740579 1492.00001633 c 4
 473.038494443 1491.99197282 420.652839146 1481.08683521 369 1469 c 4
  Spiro
    526 1492 o
    369 1469 o
    167 1418 v
    0 1323 v
    384 1152 v
    482 1152 ]
    675 1203 o
    727 1322 o
    670 1446 o
    0 0 z
  EndSpiro
681 1102 m 4
 654.483893113 1124.8535734 620.993446953 1138.60498506 586.62826675 1145.27012805 c 4
 552.263086547 1151.93527104 517.005567293 1152 482 1152 c 6
 384 1152 l 5
 0 1120 l 5
 132 896 l 5
 194.547568062 878.887689266 257.096286024 861.752847906 320 846 c 4
 387.992200451 828.972852876 456.908252453 812.09993555 527 812 c 4
 527.523925425 811.999626306 l 4
 566.876515789 811.999626306 606.843269543 818.330920328 642 836 c 4
 669.228891791 849.684704242 693.156661909 870.197269261 709.833848307 895.703251544 c 4
 726.669596871 921.451737789 736.002891459 951.858064687 736.002891459 982.920197563 c 4
 736.002891459 1028.02673264 715.173625357 1072.54660178 681 1102 c 4
  Spiro
    681 1102 o
    482 1152 [
    384 1152 v
    0 1120 v
    132 896 v
    320 846 o
    527 812 o
    642 836 o
    736 982 o
    0 0 z
  EndSpiro
EndSplineSet
Fore
Layer: 2
SplineSet
527 1152 m 4
 650.1140625 1152 736 1082.30664062 736 982 c 4
 736 881.693359375 650.1140625 812 527 812 c 4
 403.8859375 812 318 881.693359375 318 982 c 4
 318 1082.30664062 403.8859375 1152 527 1152 c 4
  Spiro
    527 1152 o
    635.81 1130.26 o
    709.225 1070.58 o
    736 982 o
    709.225 893.421 o
    635.81 833.742 o
    527 812 o
    418.19 833.742 o
    344.775 893.421 o
    318 982 o
    344.775 1070.58 o
    418.19 1130.26 o
    0 0 z
  EndSpiro
527 1492 m 4
 644.8125 1492 727 1422.30664062 727 1322 c 4
 727 1221.69335938 644.8125 1152 527 1152 c 4
 409.1875 1152 327 1221.69335938 327 1322 c 4
 327 1422.30664062 409.1875 1492 527 1492 c 4
  Spiro
    527 1492 o
    631.124 1470.26 o
    701.378 1410.58 o
    727 1322 o
    701.378 1233.42 o
    631.124 1173.74 o
    527 1152 o
    422.876 1173.74 o
    352.622 1233.42 o
    327 1322 o
    352.622 1410.58 o
    422.876 1470.26 o
    0 0 z
  EndSpiro
EndSplineSet
Layer: 3
Layer: 4
EndChar
StartChar: Aacute
Encoding: 193 193 66
GlifName: A_acute
Width: 1024
VWidth: 0
Flags: W
HStem: 0 21G<105 246.5 905.5 1047> 384 120<342 810> 1139 141<552.916 599.249> 1408 21G<488 638.969>
LayerCount: 5
Back
Fore
SplineSet
581 1139 m 5
 571 1139 l 5
 473 939 400 724 342 504 c 5
 810 504 l 5
 752 724 680 938 581 1139 c 5
312 384 m 5
 282 257 258 129 235 0 c 5
 105 0 l 5
 182 441 295 884 520 1280 c 5
 632 1280 l 5
 857 884 970 441 1047 0 c 5
 917 0 l 5
 894 129 870 257 840 384 c 5
 312 384 l 5
488 1408 m 1
 654 1664 l 1
 792 1664 l 1
 626 1408 l 1
 488 1408 l 1
EndSplineSet
Layer: 2
Layer: 3
Layer: 4
EndChar
StartChar: Adieresis
Encoding: 196 196 67
GlifName: A_dieresis
Width: 1024
VWidth: 0
Flags: W
HStem: 0 21G<105 246.5 905.5 1047> 384 120<342 810> 1139 141<552.916 599.249> 1424 224<262.609 441.391 710.609 889.391>
VStem: 240 224<1446.61 1625.39> 688 224<1446.61 1625.39>
LayerCount: 5
Back
Fore
SplineSet
581 1139 m 5
 571 1139 l 5
 473 939 400 724 342 504 c 5
 810 504 l 5
 752 724 680 938 581 1139 c 5
312 384 m 5
 282 257 258 129 235 0 c 5
 105 0 l 5
 182 441 295 884 520 1280 c 5
 632 1280 l 5
 857 884 970 441 1047 0 c 5
 917 0 l 5
 894 129 870 257 840 384 c 5
 312 384 l 5
800 1648 m 4
 866 1648 912 1602 912 1536 c 4
 912 1470 866 1424 800 1424 c 4
 734 1424 688 1470 688 1536 c 4
 688 1602 734 1648 800 1648 c 4
352 1648 m 4
 418 1648 464 1602 464 1536 c 4
 464 1470 418 1424 352 1424 c 4
 286 1424 240 1470 240 1536 c 4
 240 1602 286 1648 352 1648 c 4
EndSplineSet
Layer: 2
Layer: 3
Layer: 4
EndChar
StartChar: Aring
Encoding: 197 197 68
GlifName: A_ring
Width: 1024
VWidth: 0
Flags: W
HStem: 0 21G<105 246.5 905.5 1047> 384 120<342 810> 1180 100<494.711 657.289> 1536 100<482.81 669.19>
VStem: 348 108<1306.97 1509.03> 696 108<1306.97 1509.03>
LayerCount: 5
Back
Fore
SplineSet
581 1139 m 5
 571 1139 l 5
 473 939 400 724 342 504 c 5
 810 504 l 5
 752 724 680 938 581 1139 c 5
312 384 m 5
 282 257 258 129 235 0 c 5
 105 0 l 5
 182 441 295 884 520 1280 c 5
 632 1280 l 5
 857 884 970 441 1047 0 c 5
 917 0 l 5
 894 129 870 257 840 384 c 5
 312 384 l 5
576 1636 m 0
 711 1636 804 1535 804 1408 c 0
 804 1281 711 1180 576 1180 c 0
 441 1180 348 1281 348 1408 c 0
 348 1535 441 1636 576 1636 c 0
576 1536 m 0
 506 1536 456 1491 456 1408 c 0
 456 1325 506 1280 576 1280 c 0
 646 1280 696 1325 696 1408 c 0
 696 1491 646 1536 576 1536 c 0
EndSplineSet
Layer: 2
Layer: 3
Layer: 4
EndChar
StartChar: Ccedilla
Encoding: 199 199 69
GlifName: C_cedilla
Width: 1920
VWidth: 0
Flags: H
LayerCount: 5
Back
SplineSet
1024 141 m 5
 1024 21 l 5
 907 1 777 -16 643 -16 c 4
 358 -16 199 142 143 364 c 4
 114 478 112 594 112 704 c 4
 112 814 114 930 143 1044 c 4
 201 1266 355 1424 643 1424 c 4
 766 1424 885 1412 994 1395 c 5
 994 1275 l 5
 881 1292 755 1304 643 1304 c 4
 420 1304 312 1188 268 1016 c 4
 243 919 240 813 240 704 c 4
 240 595 243 489 268 392 c 4
 312 220 420 104 643 104 c 4
 765 104 903 121 1024 141 c 5
EndSplineSet
Fore
Layer: 2
Layer: 3
Layer: 4
EndChar
StartChar: Egrave
Encoding: 200 200 70
GlifName: E_grave
Width: 1024
VWidth: 0
Flags: W
HStem: 0 120<384 1024> 648 120<384 896> 1160 120<384 1024> 1408 21G<513.031 664>
VStem: 256 128<120 648 768 1160>
LayerCount: 5
Back
Fore
SplineSet
256 1280 m 5
 1024 1280 l 5
 1024 1160 l 5
 384 1160 l 5
 384 768 l 1
 896 768 l 1
 896 648 l 1
 384 648 l 1
 384 120 l 1
 1024 120 l 1
 1024 0 l 1
 256 0 l 1
 256 1280 l 5
664 1408 m 1
 526 1408 l 1
 360 1664 l 1
 498 1664 l 1
 664 1408 l 1
EndSplineSet
Layer: 2
Layer: 3
Layer: 4
EndChar
StartChar: Edieresis
Encoding: 203 203 73
GlifName: E_dieresis
Width: 1024
VWidth: 0
Flags: W
HStem: 0 120<384 1024> 648 120<384 896> 1160 120<384 1024> 1424 224<262.609 441.391 710.609 889.391>
VStem: 240 224<1446.61 1625.39> 256 128<120 648 768 1160> 688 224<1446.61 1625.39>
LayerCount: 5
Back
Fore
SplineSet
256 1280 m 5xf6
 1024 1280 l 5
 1024 1160 l 5
 384 1160 l 5
 384 768 l 1
 896 768 l 1
 896 648 l 1
 384 648 l 1
 384 120 l 1
 1024 120 l 1
 1024 0 l 1
 256 0 l 1
 256 1280 l 5xf6
800 1648 m 4
 866 1648 912 1602 912 1536 c 4
 912 1470 866 1424 800 1424 c 4
 734 1424 688 1470 688 1536 c 4
 688 1602 734 1648 800 1648 c 4
352 1648 m 4
 418 1648 464 1602 464 1536 c 4
 464 1470 418 1424 352 1424 c 4
 286 1424 240 1470 240 1536 c 4xfa
 240 1602 286 1648 352 1648 c 4
EndSplineSet
Layer: 2
Layer: 3
Layer: 4
EndChar
StartChar: Idieresis
Encoding: 207 207 77
GlifName: I_dieresis
Width: 1024
VWidth: 0
Flags: W
HStem: 0 120<256 512 640 896> 1160 120<256 512 640 896> 1424 224<262.609 441.391 710.609 889.391>
VStem: 240 224<1446.61 1625.39> 512 128<120 1160> 688 224<1446.61 1625.39>
CounterMasks: 1 1c
LayerCount: 5
Back
Fore
SplineSet
896 1280 m 5
 896 1160 l 5
 640 1160 l 5
 640 120 l 1
 896 120 l 1
 896 0 l 1
 256 0 l 1
 256 120 l 1
 512 120 l 1
 512 1160 l 5
 256 1160 l 5
 256 1280 l 5
 896 1280 l 5
800 1648 m 4
 866 1648 912 1602 912 1536 c 4
 912 1470 866 1424 800 1424 c 4
 734 1424 688 1470 688 1536 c 4
 688 1602 734 1648 800 1648 c 4
352 1648 m 4
 418 1648 464 1602 464 1536 c 4
 464 1470 418 1424 352 1424 c 4
 286 1424 240 1470 240 1536 c 4
 240 1602 286 1648 352 1648 c 4
EndSplineSet
Layer: 2
Layer: 3
Layer: 4
EndChar
StartChar: Ntilde
Encoding: 209 209 78
GlifName: N_tilde
Width: 1024
VWidth: 0
Flags: W
HStem: 0 21G<128 256 883.885 1024> 1412 120<627.68 755.914> 1540 120<396.111 524.32>
VStem: 128 128<0 1040> 253 128<1433 1533.1> 771 128<1539.78 1639> 896 128<240 1280>
LayerCount: 5
Back
Fore
SplineSet
256 0 m 1xf2
 128 0 l 1
 128 1280 l 1
 255 1280 l 1
 886 240 l 1
 896 240 l 1
 896 1280 l 1
 1024 1280 l 1
 1024 0 l 1
 896 0 l 1
 266 1040 l 5
 256 1040 l 5
 256 0 l 1xf2
448 1540 m 0
 397 1540 384 1481 381 1427 c 1
 253 1433 l 1
 257 1551 319 1660 448 1660 c 0
 594 1660 627 1532 704 1532 c 0
 755 1532 768 1591 771 1645 c 1
 899 1639 l 1xec
 896 1523 833 1412 704 1412 c 0
 558 1412 525 1540 448 1540 c 0
EndSplineSet
Layer: 2
Layer: 3
Layer: 4
EndChar
StartChar: Uacute
Encoding: 218 218 85
GlifName: U_acute
Width: 1024
VWidth: 0
Flags: W
HStem: -16 120<409.11 742.813> 1408 21G<488 638.969>
VStem: 128 128<260.614 1280> 896 128<260.614 1280>
LayerCount: 5
Back
Fore
SplineSet
128 1280 m 1
 256 1280 l 1
 256 512 l 2
 256 437 256 378 268 330 c 0
 301 196 416 104 576 104 c 0
 736 104 851 196 884 330 c 0
 896 378 896 437 896 512 c 2
 896 1280 l 1
 1024 1280 l 1
 1024 512 l 2
 1024 426 1024 371 1008 303 c 0
 964 118 797 -16 576 -16 c 0
 355 -16 187 118 144 303 c 0
 128 371 128 426 128 512 c 2
 128 1280 l 1
488 1408 m 1
 654 1664 l 1
 792 1664 l 1
 626 1408 l 1
 488 1408 l 1
EndSplineSet
Layer: 2
Layer: 3
Layer: 4
EndChar
StartChar: Udieresis
Encoding: 220 220 87
GlifName: U_dieresis
Width: 1024
VWidth: 0
Flags: W
HStem: -16 120<409.11 742.813> 1424 224<262.609 441.391 710.609 889.391>
VStem: 128 128<260.614 1280> 240 224<1446.61 1625.39> 688 224<1446.61 1625.39> 896 128<260.614 1280>
LayerCount: 5
Back
Fore
SplineSet
128 1280 m 1xe4
 256 1280 l 1
 256 512 l 2
 256 437 256 378 268 330 c 0
 301 196 416 104 576 104 c 0
 736 104 851 196 884 330 c 0
 896 378 896 437 896 512 c 2
 896 1280 l 1
 1024 1280 l 1
 1024 512 l 2
 1024 426 1024 371 1008 303 c 0
 964 118 797 -16 576 -16 c 0
 355 -16 187 118 144 303 c 0
 128 371 128 426 128 512 c 2
 128 1280 l 1xe4
800 1648 m 4
 866 1648 912 1602 912 1536 c 4
 912 1470 866 1424 800 1424 c 4
 734 1424 688 1470 688 1536 c 4xc8
 688 1602 734 1648 800 1648 c 4
352 1648 m 4
 418 1648 464 1602 464 1536 c 4
 464 1470 418 1424 352 1424 c 4
 286 1424 240 1470 240 1536 c 4xd0
 240 1602 286 1648 352 1648 c 4
EndSplineSet
Layer: 2
Layer: 3
Layer: 4
Substitution2: "'ss14' Style Set 14 lookup 13 subtable" Udieresis.sqeeze
EndChar
StartChar: eth
Encoding: 240 240 90
GlifName: eth
Width: 1920
VWidth: 0
Flags: H
LayerCount: 5
Back
Fore
Layer: 2
SplineSet
864 202 m 5
 864 512 l 6
 864 705.208007812 855.663085938 903.294921875 780.227539062 1081.16796875 c 4
 704.791015625 1259.04101562 564.948242188 1410.00878906 390 1492 c 1028
  Spiro
    864 202 {
    864 512 ]
    390 1492 o
    0 0 z
  EndSpiro
EndSplineSet
Layer: 3
Layer: 4
EndChar
StartChar: Abreve
Encoding: 258 258 93
GlifName: A_breve
Width: 1024
VWidth: 0
Flags: W
HStem: 0 21G<105 246.5 905.5 1047> 384 120<342 810> 1139 141<552.916 599.249> 1392 120<420.418 731.582>
VStem: 236 128<1569.88 1664> 788 128<1569.88 1664>
LayerCount: 5
Back
Fore
SplineSet
581 1139 m 5
 571 1139 l 5
 473 939 400 724 342 504 c 5
 810 504 l 5
 752 724 680 938 581 1139 c 5
312 384 m 5
 282 257 258 129 235 0 c 5
 105 0 l 5
 182 441 295 884 520 1280 c 5
 632 1280 l 5
 857 884 970 441 1047 0 c 5
 917 0 l 5
 894 129 870 257 840 384 c 5
 312 384 l 5
788 1664 m 1
 916 1664 l 1
 916 1496 764 1392 576 1392 c 0
 388 1392 236 1496 236 1664 c 1
 364 1664 l 1
 364 1578 433 1512 576 1512 c 0
 719 1512 788 1578 788 1664 c 1
EndSplineSet
Layer: 2
Layer: 3
Layer: 4
EndChar
StartChar: Cacute
Encoding: 262 262 94
GlifName: C_acute
Width: 1024
VWidth: 0
Flags: W
HStem: -16 120<449.944 1018.69> 1176 120<450.414 988.93> 1408 21G<552 702.969>
VStem: 112 128<350.344 929.656>
LayerCount: 5
Back
Fore
SplineSet
653 1296 m 0
 772 1296 888 1284 994 1267 c 1
 994 1147 l 1
 884 1164 762 1176 653 1176 c 0
 494.075195312 1176 397.186523438 1125.16210938 330 1028 c 0
 265 934 240 800 240 640 c 0
 240 480 265 346 330 252 c 0
 398 154 494 104 663 104 c 0
 779 104 909 117 1024 133 c 1
 1024 13 l 1
 913 -3 790 -16 663 -16 c 0
 457 -16 319 49 223 186 c 0
 138 307 112 461 112 640 c 0
 112 819 138 973 223 1094 c 0
 318.446289062 1229.87109375 456.681640625 1296 653 1296 c 0
552 1408 m 1
 718 1664 l 1
 856 1664 l 1
 690 1408 l 1
 552 1408 l 1
EndSplineSet
Layer: 2
Layer: 3
Layer: 4
EndChar
StartChar: Cdotaccent
Encoding: 266 266 96
GlifName: C_dotaccent
Width: 1024
VWidth: 0
Flags: W
HStem: -16 120<449.944 1018.69> 1176 120<450.414 988.93> 1456 224<550.609 729.391>
VStem: 112 128<350.344 929.656> 528 224<1478.61 1657.39>
LayerCount: 5
Back
Fore
SplineSet
653 1296 m 0
 772 1296 888 1284 994 1267 c 1
 994 1147 l 1
 884 1164 762 1176 653 1176 c 0
 494.075195312 1176 397.186523438 1125.16210938 330 1028 c 0
 265 934 240 800 240 640 c 0
 240 480 265 346 330 252 c 0
 398 154 494 104 663 104 c 0
 779 104 909 117 1024 133 c 1
 1024 13 l 1
 913 -3 790 -16 663 -16 c 0
 457 -16 319 49 223 186 c 0
 138 307 112 461 112 640 c 0
 112 819 138 973 223 1094 c 0
 318.446289062 1229.87109375 456.681640625 1296 653 1296 c 0
640 1680 m 0
 706 1680 752 1634 752 1568 c 0
 752 1502 706 1456 640 1456 c 0
 574 1456 528 1502 528 1568 c 0
 528 1634 574 1680 640 1680 c 0
EndSplineSet
Layer: 2
Layer: 3
Layer: 4
EndChar
StartChar: Ccaron
Encoding: 268 268 97
GlifName: C_caron
Width: 1024
VWidth: 0
Flags: W
HStem: -16 120<449.944 1018.69> 1176 120<450.414 988.93> 1408 21G<537.797 742.203>
VStem: 112 128<350.344 929.656>
LayerCount: 5
Back
Fore
SplineSet
653 1296 m 0
 772 1296 888 1284 994 1267 c 1
 994 1147 l 1
 884 1164 762 1176 653 1176 c 0
 494.075195312 1176 397.186523438 1125.16210938 330 1028 c 0
 265 934 240 800 240 640 c 0
 240 480 265 346 330 252 c 0
 398 154 494 104 663 104 c 0
 779 104 909 117 1024 133 c 1
 1024 13 l 1
 913 -3 790 -16 663 -16 c 0
 457 -16 319 49 223 186 c 0
 138 307 112 461 112 640 c 0
 112 819 138 973 223 1094 c 0
 318.446289062 1229.87109375 456.681640625 1296 653 1296 c 0
561 1408 m 1
 264 1664 l 1
 422 1664 l 1
 640 1500 l 1
 858 1664 l 1
 1016 1664 l 1
 719 1408 l 1
 561 1408 l 1
EndSplineSet
Layer: 2
Layer: 3
Layer: 4
EndChar
StartChar: Ebreve
Encoding: 276 276 100
GlifName: E_breve
Width: 1024
VWidth: 0
Flags: W
HStem: 0 120<384 1024> 648 120<384 896> 1160 120<384 1024> 1392 120<420.418 731.582>
VStem: 236 128<1569.88 1664> 256 128<120 648 768 1160> 788 128<1569.88 1664>
LayerCount: 5
Back
Fore
SplineSet
256 1280 m 5xf6
 1024 1280 l 5
 1024 1160 l 5
 384 1160 l 5
 384 768 l 1
 896 768 l 1
 896 648 l 1
 384 648 l 1
 384 120 l 1
 1024 120 l 1
 1024 0 l 1
 256 0 l 1
 256 1280 l 5xf6
788 1664 m 1
 916 1664 l 1
 916 1496 764 1392 576 1392 c 0
 388 1392 236 1496 236 1664 c 1
 364 1664 l 1xfa
 364 1578 433 1512 576 1512 c 0
 719 1512 788 1578 788 1664 c 1
EndSplineSet
Layer: 2
Layer: 3
Layer: 4
EndChar
StartChar: eogonek
Encoding: 281 281 91
GlifName: eogonek
Width: 1920
VWidth: 0
Flags: H
LayerCount: 5
Back
Fore
Layer: 2
SplineSet
352 512 m 5
 352 410 352 308 384 235 c 4
 420 152 485 104 586 104 c 4
 682 104 788 121 896 148 c 5
 896 25 l 5
 789 -1 689 -16 586 -16 c 4
 417 -16 311 78 264 193 c 4
 226 286 224 391 224 512 c 4
 224 633 226 734 264 829 c 4
 310 945 416 1040 576 1040 c 4
 736 1040 842 945 888 829 c 4
 926 734 928 633 928 512 c 5
 352 512 l 5
797 632 m 5
 794 690 786 744 768 789 c 4
 736 868 672 920 576 920 c 4
 480 920 416 868 384 789 c 4
 366 744 358 690 355 632 c 5
 797 632 l 5
EndSplineSet
Layer: 3
Layer: 4
EndChar
StartChar: Ecaron
Encoding: 282 282 102
GlifName: E_caron
Width: 1024
VWidth: 0
Flags: W
HStem: 0 120<384 1024> 648 120<384 896> 1160 120<384 1024> 1408 21G<473.797 678.203>
VStem: 256 128<120 648 768 1160>
LayerCount: 5
Back
Fore
SplineSet
256 1280 m 5
 1024 1280 l 5
 1024 1160 l 5
 384 1160 l 5
 384 768 l 1
 896 768 l 1
 896 648 l 1
 384 648 l 1
 384 120 l 1
 1024 120 l 1
 1024 0 l 1
 256 0 l 1
 256 1280 l 5
497 1408 m 1
 200 1664 l 1
 358 1664 l 1
 576 1500 l 1
 794 1664 l 1
 952 1664 l 1
 655 1408 l 1
 497 1408 l 1
EndSplineSet
Layer: 2
Layer: 3
Layer: 4
EndChar
StartChar: Gcircumflex
Encoding: 284 284 103
GlifName: G_circumflex
Width: 1024
VWidth: 0
Flags: W
HStem: -16 120<449.967 893.406> 640 120<640 896> 1176 120<450.414 988.93> 1408 21G<264 448.585 831.415 1016>
VStem: 112 128<347.577 929.656> 896 128<118.439 640>
LayerCount: 5
Back
Fore
SplineSet
653 1296 m 4
 772 1296 888 1284 994 1267 c 5
 994 1147 l 5
 884 1164 762 1176 653 1176 c 4
 494.075195312 1176 397.186523438 1125.16210938 330 1028 c 4
 265 934 240 800 240 640 c 4
 240 480 264.848632812 345.89453125 330 252 c 4
 398 154 494 104 663 104 c 4
 737.455078125 104 817.677734375 112.125976562 896 124.365234375 c 5
 896 640 l 5
 640 640 l 5
 640 760 l 5
 1024 760 l 5
 1024 28 l 5
 913 3.724609375 790 -16 663 -16 c 4
 457 -16 319.16015625 49.1123046875 223 186 c 4
 138 307 112 461 112 640 c 4
 112 819 138 973 223 1094 c 4
 318.446289062 1229.87109375 456.681640625 1296 653 1296 c 4
561 1664 m 1
 719 1664 l 1
 1016 1408 l 1
 858 1408 l 1
 640 1572 l 1
 422 1408 l 1
 264 1408 l 1
 561 1664 l 1
EndSplineSet
Layer: 2
Layer: 3
Layer: 4
EndChar
StartChar: Gbreve
Encoding: 286 286 104
GlifName: G_breve
Width: 1024
VWidth: 0
Flags: W
HStem: -16 120<449.967 893.406> 640 120<640 896> 1176 120<450.414 988.93> 1392 120<484.418 795.582>
VStem: 112 128<347.577 929.656> 300 128<1569.88 1664> 852 128<1569.88 1664> 896 128<118.439 640>
LayerCount: 5
Back
Fore
SplineSet
653 1296 m 4xfd
 772 1296 888 1284 994 1267 c 5
 994 1147 l 5
 884 1164 762 1176 653 1176 c 4
 494.075195312 1176 397.186523438 1125.16210938 330 1028 c 4
 265 934 240 800 240 640 c 4
 240 480 264.848632812 345.89453125 330 252 c 4
 398 154 494 104 663 104 c 4
 737.455078125 104 817.677734375 112.125976562 896 124.365234375 c 5
 896 640 l 5
 640 640 l 5
 640 760 l 5
 1024 760 l 5
 1024 28 l 5
 913 3.724609375 790 -16 663 -16 c 4
 457 -16 319.16015625 49.1123046875 223 186 c 4
 138 307 112 461 112 640 c 4
 112 819 138 973 223 1094 c 4
 318.446289062 1229.87109375 456.681640625 1296 653 1296 c 4xfd
852 1664 m 1xfe
 980 1664 l 1
 980 1496 828 1392 640 1392 c 0
 452 1392 300 1496 300 1664 c 1
 428 1664 l 1
 428 1578 497 1512 640 1512 c 0
 783 1512 852 1578 852 1664 c 1xfe
EndSplineSet
Layer: 2
Layer: 3
Layer: 4
EndChar
StartChar: Gdotaccent
Encoding: 288 288 105
GlifName: G_dotaccent
Width: 1024
VWidth: 0
Flags: W
HStem: -16 120<449.967 893.406> 640 120<640 896> 1176 120<450.414 988.93> 1456 224<550.609 729.391>
VStem: 112 128<347.577 929.656> 528 224<1478.61 1657.39> 896 128<118.439 640>
LayerCount: 5
Back
Fore
SplineSet
653 1296 m 4
 772 1296 888 1284 994 1267 c 5
 994 1147 l 5
 884 1164 762 1176 653 1176 c 4
 494.075195312 1176 397.186523438 1125.16210938 330 1028 c 4
 265 934 240 800 240 640 c 4
 240 480 264.848632812 345.89453125 330 252 c 4
 398 154 494 104 663 104 c 4
 737.455078125 104 817.677734375 112.125976562 896 124.365234375 c 5
 896 640 l 5
 640 640 l 5
 640 760 l 5
 1024 760 l 5
 1024 28 l 5
 913 3.724609375 790 -16 663 -16 c 4
 457 -16 319.16015625 49.1123046875 223 186 c 4
 138 307 112 461 112 640 c 4
 112 819 138 973 223 1094 c 4
 318.446289062 1229.87109375 456.681640625 1296 653 1296 c 4
640 1680 m 0
 706 1680 752 1634 752 1568 c 0
 752 1502 706 1456 640 1456 c 0
 574 1456 528 1502 528 1568 c 0
 528 1634 574 1680 640 1680 c 0
EndSplineSet
Layer: 2
Layer: 3
Layer: 4
EndChar
StartChar: Hcircumflex
Encoding: 292 292 117
GlifName: H_circumflex
Width: 1024
VWidth: 0
Flags: W
HStem: 0 21G<128 256 896 1024> 640 120<256 896> 1408 21G<200 384.585 767.415 952>
VStem: 128 128<0 640 760 1280> 896 128<0 640 760 1280>
LayerCount: 5
Back
Fore
SplineSet
128 1280 m 5
 256 1280 l 5
 256 760 l 1
 896 760 l 1
 896 1280 l 5
 1024 1280 l 5
 1024 0 l 1
 896 0 l 1
 896 640 l 1
 256 640 l 1
 256 0 l 1
 128 0 l 1
 128 1280 l 5
497 1664 m 1
 655 1664 l 1
 952 1408 l 1
 794 1408 l 1
 576 1572 l 1
 358 1408 l 1
 200 1408 l 1
 497 1664 l 1
EndSplineSet
Layer: 2
Layer: 3
Layer: 4
EndChar
StartChar: Itilde
Encoding: 296 296 118
GlifName: I_tilde
Width: 1024
VWidth: 0
Flags: W
HStem: 0 120<256 512 640 896> 1160 120<256 512 640 896> 1412 120<627.68 755.914> 1540 120<396.111 524.32>
VStem: 253 128<1433 1533.1> 512 128<120 1160> 771 128<1539.78 1639>
CounterMasks: 1 0e
LayerCount: 5
Back
Fore
SplineSet
896 1280 m 5
 896 1160 l 5
 640 1160 l 5
 640 120 l 1
 896 120 l 1
 896 0 l 1
 256 0 l 1
 256 120 l 1
 512 120 l 1
 512 1160 l 5
 256 1160 l 5
 256 1280 l 5
 896 1280 l 5
448 1540 m 0
 397 1540 384 1481 381 1427 c 1
 253 1433 l 1
 257 1551 319 1660 448 1660 c 0
 594 1660 627 1532 704 1532 c 0
 755 1532 768 1591 771 1645 c 1
 899 1639 l 1
 896 1523 833 1412 704 1412 c 0
 558 1412 525 1540 448 1540 c 0
EndSplineSet
Layer: 2
Layer: 3
Layer: 4
EndChar
StartChar: Imacron
Encoding: 298 298 119
GlifName: I_macron
Width: 1024
VWidth: 0
Flags: W
HStem: 0 120<256 512 640 896> 1160 120<256 512 640 896> 1412 120<256 896>
VStem: 512 128<120 1160>
LayerCount: 5
Back
Fore
SplineSet
896 1280 m 5
 896 1160 l 5
 640 1160 l 5
 640 120 l 1
 896 120 l 1
 896 0 l 1
 256 0 l 1
 256 120 l 1
 512 120 l 1
 512 1160 l 5
 256 1160 l 5
 256 1280 l 5
 896 1280 l 5
256 1532 m 1
 896 1532 l 1
 896 1412 l 1
 256 1412 l 1
 256 1532 l 1
EndSplineSet
Layer: 2
Layer: 3
Layer: 4
EndChar
StartChar: Jcircumflex
Encoding: 308 308 122
GlifName: J_circumflex
Width: 1024
VWidth: 0
Flags: W
HStem: -16 120<259.67 667.873> 1408 21G<456 640.585 1023.41 1208>
VStem: 768 128<216.393 1280>
LayerCount: 5
Back
Fore
SplineSet
896 512 m 2
 896 395 895 286 856 193 c 0
 808 79 706 -16 544 -16 c 0
 428 -16 335 -2 256 8 c 1
 256 129 l 1
 333 118 433 104 537 104 c 0
 636 104 700 153 736 235 c 0
 768 308 768 410 768 512 c 2
 768 1280 l 5
 896 1280 l 5
 896 512 l 2
753 1664 m 1
 911 1664 l 1
 1208 1408 l 1
 1050 1408 l 1
 832 1572 l 1
 614 1408 l 1
 456 1408 l 1
 753 1664 l 1
EndSplineSet
Layer: 2
Layer: 3
Layer: 4
EndChar
StartChar: Nacute
Encoding: 323 323 123
GlifName: N_acute
Width: 1024
VWidth: 0
Flags: W
HStem: 0 21G<128 256 883.885 1024> 1408 21G<488 638.969>
VStem: 128 128<0 1040> 896 128<240 1280>
LayerCount: 5
Back
Fore
SplineSet
256 0 m 1
 128 0 l 1
 128 1280 l 1
 255 1280 l 1
 886 240 l 1
 896 240 l 1
 896 1280 l 1
 1024 1280 l 1
 1024 0 l 1
 896 0 l 1
 266 1040 l 5
 256 1040 l 5
 256 0 l 1
488 1408 m 1
 654 1664 l 1
 792 1664 l 1
 626 1408 l 1
 488 1408 l 1
EndSplineSet
Layer: 2
Layer: 3
Layer: 4
EndChar
StartChar: Scedilla
Encoding: 350 350 134
GlifName: S_cedilla
Width: 1920
VWidth: 0
Flags: H
LayerCount: 5
Back
SplineSet
576 -16 m 4
 452 -16 322 -2 206 16 c 5
 206 139 l 5
 320 121 458 104 576 104 c 4
 755 104 882 209 882 385 c 4
 882 508 813 597 724 632 c 4
 610 678 500 650 367 721 c 4
 260 778 182 895 182 1045 c 4
 182 1266 341 1424 576 1424 c 4
 702 1424 833 1407 946 1389 c 5
 946 1265 l 5
 834 1285 691 1304 576 1304 c 4
 411 1304 310 1198 310 1045 c 4
 310 942 361 863 433 825 c 4
 531 773 656 788 772 742 c 4
 901 691 1010 566 1010 385 c 4
 1010 143 825 -16 576 -16 c 4
EndSplineSet
Fore
Layer: 2
Layer: 3
Layer: 4
EndChar
StartChar: Umacron
Encoding: 362 362 107
GlifName: U_macron
Width: 1024
VWidth: 0
Flags: W
HStem: -16 120<409.11 742.813> 1412 120<256 896>
VStem: 128 128<260.614 1280> 896 128<260.614 1280>
LayerCount: 5
Back
Fore
SplineSet
128 1280 m 1
 256 1280 l 1
 256 512 l 2
 256 437 256 378 268 330 c 0
 301 196 416 104 576 104 c 0
 736 104 851 196 884 330 c 0
 896 378 896 437 896 512 c 2
 896 1280 l 1
 1024 1280 l 1
 1024 512 l 2
 1024 426 1024 371 1008 303 c 0
 964 118 797 -16 576 -16 c 0
 355 -16 187 118 144 303 c 0
 128 371 128 426 128 512 c 2
 128 1280 l 1
256 1532 m 1
 896 1532 l 1
 896 1412 l 1
 256 1412 l 1
 256 1532 l 1
EndSplineSet
Layer: 2
Layer: 3
Layer: 4
EndChar
StartChar: Ubreve
Encoding: 364 364 108
GlifName: U_breve
Width: 1024
VWidth: 0
Flags: W
HStem: -16 120<409.11 742.813> 1392 120<420.418 731.582>
VStem: 128 128<260.614 1280> 236 128<1569.88 1664> 788 128<1569.88 1664> 896 128<260.614 1280>
LayerCount: 5
Back
Fore
SplineSet
128 1280 m 1xe4
 256 1280 l 1
 256 512 l 2
 256 437 256 378 268 330 c 0
 301 196 416 104 576 104 c 0
 736 104 851 196 884 330 c 0
 896 378 896 437 896 512 c 2
 896 1280 l 1
 1024 1280 l 1
 1024 512 l 2
 1024 426 1024 371 1008 303 c 0
 964 118 797 -16 576 -16 c 0
 355 -16 187 118 144 303 c 0
 128 371 128 426 128 512 c 2
 128 1280 l 1xe4
788 1664 m 1xd8
 916 1664 l 1
 916 1496 764 1392 576 1392 c 0
 388 1392 236 1496 236 1664 c 1
 364 1664 l 1
 364 1578 433 1512 576 1512 c 0
 719 1512 788 1578 788 1664 c 1xd8
EndSplineSet
Layer: 2
Layer: 3
Layer: 4
EndChar
StartChar: Ycircumflex
Encoding: 374 374 112
GlifName: Y_circumflex
Width: 1024
VWidth: 0
Flags: W
HStem: 0 21G<512 640> 1408 21G<200 384.585 767.415 952>
VStem: 512 128<0 582.348>
LayerCount: 5
Back
Fore
SplineSet
586 658 m 1
 730 847.3046875 830 1059.921875 916 1280 c 1
 1052 1280 l 1
 954 1021.42382812 832 773.78515625 640 538 c 1
 640 0 l 1
 512 0 l 1
 512 538 l 1
 320 773.78515625 198 1021.42382812 100 1280 c 1
 236 1280 l 1
 322 1058.89746094 423 846.372070312 566 658 c 1
 586 658 l 1
497 1664 m 1
 655 1664 l 1
 952 1408 l 1
 794 1408 l 1
 576 1572 l 1
 358 1408 l 1
 200 1408 l 1
 497 1664 l 1
EndSplineSet
Layer: 2
Layer: 3
Layer: 4
EndChar
StartChar: Zacute
Encoding: 377 377 114
GlifName: Z_acute
Width: 1024
VWidth: 0
Flags: W
HStem: 0 120<303 1024> 1160 120<148 829> 1411 21G<507 657.969>
LayerCount: 5
Back
Fore
SplineSet
148 1160 m 1
 148 1280 l 1
 1004 1280 l 1
 1004 1190 l 1
 303 130 l 5
 303 120 l 5
 1024 120 l 1
 1024 0 l 1
 128 0 l 1
 128 92 l 1
 829 1150 l 1
 829 1160 l 1
 148 1160 l 1
507 1411 m 1
 673 1667 l 1
 811 1667 l 1
 645 1411 l 1
 507 1411 l 1
EndSplineSet
Layer: 2
Layer: 3
Layer: 4
EndChar
StartChar: Zdotaccent
Encoding: 379 379 115
GlifName: Z_dotaccent
Width: 1024
VWidth: 0
Flags: W
HStem: 0 120<303 1024> 1160 120<148 829> 1411 224<486.609 665.391>
VStem: 464 224<1433.61 1612.39>
LayerCount: 5
Back
Fore
SplineSet
148 1160 m 1
 148 1280 l 1
 1004 1280 l 1
 1004 1190 l 1
 303 130 l 5
 303 120 l 5
 1024 120 l 1
 1024 0 l 1
 128 0 l 1
 128 92 l 1
 829 1150 l 1
 829 1160 l 1
 148 1160 l 1
576 1635 m 0
 642 1635 688 1589 688 1523 c 0
 688 1457 642 1411 576 1411 c 0
 510 1411 464 1457 464 1523 c 0
 464 1589 510 1635 576 1635 c 0
EndSplineSet
Layer: 2
Layer: 3
Layer: 4
EndChar
StartChar: uni0200
Encoding: 512 512 262
GlifName: uni0200
Width: 1024
VWidth: 0
Flags: W
HStem: 0 21G<105 246.5 905.5 1047> 384 120<342 810> 1139 141<552.916 599.249> 1408 21G<321.031 472 705.031 856>
LayerCount: 5
Back
Fore
SplineSet
581 1139 m 5
 571 1139 l 5
 473 939 400 724 342 504 c 5
 810 504 l 5
 752 724 680 938 581 1139 c 5
312 384 m 5
 282 257 258 129 235 0 c 5
 105 0 l 5
 182 441 295 884 520 1280 c 5
 632 1280 l 5
 857 884 970 441 1047 0 c 5
 917 0 l 5
 894 129 870 257 840 384 c 5
 312 384 l 5
472 1408 m 1
 334 1408 l 1
 168 1664 l 1
 306 1664 l 1
 472 1408 l 1
856 1408 m 1
 718 1408 l 1
 552 1664 l 1
 690 1664 l 1
 856 1408 l 1
EndSplineSet
Layer: 2
Layer: 3
Layer: 4
EndChar
StartChar: uni0204
Encoding: 516 516 264
GlifName: uni0204
Width: 1024
VWidth: 0
Flags: W
HStem: 0 120<384 1024> 648 120<384 896> 1160 120<384 1024> 1408 21G<321.031 472 705.031 856>
VStem: 256 128<120 648 768 1160>
LayerCount: 5
Back
Fore
SplineSet
256 1280 m 5
 1024 1280 l 5
 1024 1160 l 5
 384 1160 l 5
 384 768 l 1
 896 768 l 1
 896 648 l 1
 384 648 l 1
 384 120 l 1
 1024 120 l 1
 1024 0 l 1
 256 0 l 1
 256 1280 l 5
472 1408 m 1
 334 1408 l 1
 168 1664 l 1
 306 1664 l 1
 472 1408 l 1
856 1408 m 1
 718 1408 l 1
 552 1664 l 1
 690 1664 l 1
 856 1408 l 1
EndSplineSet
Layer: 2
Layer: 3
Layer: 4
EndChar
StartChar: uni020C
Encoding: 524 524 268
GlifName: uni020C_
Width: 1024
VWidth: 0
Flags: W
HStem: -16 120<420.424 731.576> 1176 120<420.424 731.576> 1408 21G<321.031 472 705.031 856>
VStem: 112 128<318.337 961.663> 912 128<318.337 961.663>
LayerCount: 5
Back
Fore
SplineSet
576 1176 m 4
 460.939453125 1176 376.458984375 1120.28515625 326.436523438 1048.40527344 c 0
 252.9453125 942.801757812 240 797.8515625 240 640 c 0
 240 482.1484375 252.9453125 337.198242188 326.436523438 231.594726562 c 0
 376.458984375 159.71484375 460.939453125 104 576 104 c 4
 691.060546875 104 775.541015625 159.71484375 825.563476562 231.594726562 c 4
 899.0546875 337.198242188 912 482.1484375 912 640 c 4
 912 797.8515625 899.0546875 942.801757812 825.563476562 1048.40527344 c 4
 775.541015625 1120.28515625 691.060546875 1176 576 1176 c 4
  Spiro
    576 1176 o
    520.768 1171.33 o
    467.411 1157.35 o
    418.174 1134.27 o
    384.152 1110.52 o
    353.281 1081.6 o
    326.437 1048.41 o
    303.762 1011.25 o
    285.071 970.633 o
    270.365 927.578 o
    251.021 835.858 o
    242.125 739.355 o
    240 640 o
    242.125 540.645 o
    251.021 444.142 o
    270.365 352.421 o
    285.071 309.368 o
    303.761 268.754 o
    326.438 231.593 o
    353.281 198.399 o
    384.152 169.478 o
    418.174 145.73 o
    467.411 122.65 o
    520.768 108.67 o
    576 104 o
    631.232 108.67 o
    684.589 122.65 o
    733.826 145.73 o
    767.848 169.478 o
    798.719 198.4 o
    825.563 231.595 o
    848.238 268.755 o
    866.929 309.368 o
    881.636 352.422 o
    900.98 444.142 o
    909.875 540.645 o
    912 640 o
    909.875 739.356 o
    900.979 835.858 o
    881.635 927.579 o
    866.929 970.633 o
    848.239 1011.25 o
    825.563 1048.41 o
    798.718 1081.6 o
    767.848 1110.52 o
    733.826 1134.27 o
    684.589 1157.35 o
    631.232 108.67 o
    684.589 122.65 o
    733.826 145.73 o
    767.848 169.479 o
    798.718 198.4 o
    825.563 231.594 o
    848.239 268.754 o
    866.929 309.367 o
    881.635 352.421 o
    900.979 444.142 o
    909.875 540.644 o
    912 640 o
    909.875 739.355 o
    900.98 835.858 o
    881.636 927.578 o
    866.929 970.632 o
    848.238 1011.25 o
    825.563 1048.41 o
    798.719 1081.6 o
    767.848 1110.52 o
    733.826 1134.27 o
    684.589 1157.35 o
    631.232 1171.33 o
    576 1176 o
    520.768 1171.33 o
    467.411 1157.35 o
    418.174 1134.27 o
    384.152 1110.52 o
    353.281 1081.6 o
    326.438 1048.41 o
    303.761 1011.25 o
    285.071 970.632 o
    270.365 927.579 o
    251.021 835.858 o
    242.125 739.355 o
    240 640 o
    242.125 540.645 o
    251.021 444.142 o
    270.365 352.422 o
    285.071 309.367 o
    303.762 268.754 o
    326.437 231.595 o
    353.281 198.401 o
    384.152 169.479 o
    418.174 145.73 o
    467.411 122.65 o
    520.768 108.67 o
    576 104 o
    631.232 108.67 o
    684.589 122.65 o
    733.826 145.73 o
    767.848 169.479 o
    798.719 198.401 o
    825.563 231.595 o
    848.238 268.754 o
    866.929 309.367 o
    881.635 352.422 o
    900.979 444.142 o
    909.875 540.645 o
    912 640 o
    909.875 739.355 o
    900.979 835.858 o
    881.635 927.579 o
    866.929 970.632 o
    848.239 1011.25 o
    825.562 1048.41 o
    798.719 1081.6 o
    767.848 1110.52 o
    733.826 1134.27 o
    684.589 1157.35 o
    631.232 1171.33 o
    576 1176 o
    520.768 1171.33 o
    467.411 1157.35 o
    418.174 1134.27 o
    384.152 1110.52 o
    353.281 1081.6 o
    326.437 1048.41 o
    303.762 1011.25 o
    285.071 970.632 o
    270.364 927.578 o
    251.02 835.858 o
    242.125 739.355 o
    240 640 o
    242.125 540.644 o
    251.021 444.142 o
    270.365 352.421 o
    285.071 309.367 o
    303.761 268.754 o
    326.437 231.594 o
    353.282 198.4 o
    384.152 169.479 o
    418.174 145.73 o
    467.411 122.65 o
    520.768 108.67 o
    467.411 1157.35 o
    418.174 1134.27 o
    384.152 1110.52 o
    353.282 1081.6 o
    326.437 1048.41 o
    303.761 1011.25 o
    285.071 970.633 o
    270.365 927.579 o
    251.021 835.858 o
    242.125 739.356 o
    240 640 o
    242.125 540.645 o
    251.02 444.142 o
    270.364 352.422 o
    285.071 309.368 o
    303.762 268.755 o
    326.437 231.595 o
    353.281 198.4 o
    384.152 169.478 o
    418.174 145.73 o
    467.411 122.65 o
    520.768 108.67 o
    576 104 o
    631.232 108.67 o
    684.589 122.65 o
    733.826 145.73 o
    767.848 169.478 o
    798.719 198.399 o
    825.562 231.593 o
    848.239 268.754 o
    866.929 309.368 o
    881.635 352.421 o
    900.979 444.142 o
    909.875 540.645 o
    912 640 o
    909.875 739.355 o
    900.979 835.858 o
    881.635 927.578 o
    866.929 970.633 o
    848.238 1011.25 o
    825.563 1048.41 o
    798.719 1081.6 o
    767.848 1110.52 o
    733.826 1134.27 o
    684.589 1157.35 o
    631.232 1171.33 o
    0 0 z
  EndSpiro
576 1296 m 4
 740.823242188 1296 862.130859375 1214.44042969 932.497070312 1114.359375 c 4
 1023.62597656 984.748046875 1040 816.600585938 1040 640 c 4
 1040 463.399414062 1023.62597656 295.251953125 932.497070312 165.640625 c 4
 862.130859375 65.5595703125 740.823242188 -16 576 -16 c 4
 411.176757812 -16 289.869140625 65.5595703125 219.502929688 165.640625 c 0
 128.374023438 295.251953125 112 463.399414062 112 640 c 0
 112 816.600585938 128.374023438 984.748046875 219.502929688 1114.359375 c 0
 289.869140625 1214.44042969 411.176757812 1296 576 1296 c 4
  Spiro
    730.509 1269.4 o
    802.174 1235.73 o
    851.637 1201.27 o
    895.302 1160.38 o
    932.497 1114.36 o
    962.878 1064.68 o
    986.916 1012.49 o
    1005.15 959.06 o
    1027.94 851.953 o
    1037.86 744.852 o
    1040 640 o
    1037.86 535.148 o
    1027.94 428.048 o
    1005.15 320.94 o
    986.916 267.511 o
    962.878 215.32 o
    932.498 165.642 o
    895.303 119.618 o
    851.637 78.7274 o
    802.174 44.2695 o
    730.509 10.6032 o
    654.131 -9.42165 o
    576 -16 o
    497.869 -9.42165 o
    421.491 10.6032 o
    349.826 44.2695 o
    300.363 78.7271 o
    256.698 119.617 o
    219.503 165.641 o
    189.122 215.32 o
    165.084 267.511 o
    146.849 320.939 o
    124.058 428.048 o
    114.144 535.148 o
    112 640 o
    114.144 744.852 o
    124.058 851.952 o
    146.848 959.06 o
    165.084 1012.49 o
    189.122 1064.68 o
    219.503 1114.36 o
    256.697 1160.38 o
    300.363 1201.27 o
    349.826 1235.73 o
    421.491 1269.4 o
    497.869 1289.42 o
    576 -16 o
    497.869 -9.42165 o
    421.491 10.6032 o
    349.826 44.2695 o
    300.363 78.7276 o
    256.697 119.618 o
    219.503 165.642 o
    189.122 215.32 o
    165.084 267.51 o
    146.848 320.94 o
    124.058 428.048 o
    114.144 535.148 o
    112 640 o
    114.144 744.852 o
    124.058 851.952 o
    146.849 959.061 o
    165.084 1012.49 o
    189.122 1064.68 o
    219.503 1114.36 o
    256.698 1160.38 o
    300.363 1201.27 o
    349.826 1235.73 o
    421.491 1269.4 o
    497.869 1289.42 o
    576 1296 o
    654.131 1289.42 o
    730.509 1269.4 o
    802.174 1235.73 o
    851.637 1201.27 o
    895.303 1160.38 o
    932.498 1114.36 o
    962.878 1064.68 o
    986.916 1012.49 o
    1005.15 959.06 o
    1027.94 851.952 o
    1037.86 744.852 o
    1040 640 o
    1037.86 535.148 o
    1027.94 428.047 o
    1005.15 320.94 o
    986.916 267.511 o
    962.878 215.32 o
    932.497 165.641 o
    895.302 119.617 o
    851.637 78.7276 o
    802.174 44.2695 o
    730.509 10.6032 o
    654.131 -9.42165 o
    421.491 10.6032 o
    349.826 44.2695 o
    300.363 78.7276 o
    256.698 119.617 o
    219.503 165.641 o
    189.122 215.32 o
    165.084 267.511 o
    146.848 320.94 o
    124.058 428.047 o
    114.144 535.148 o
    112 640 o
    114.144 744.852 o
    124.058 851.952 o
    146.848 959.06 o
    165.084 1012.49 o
    189.122 1064.68 o
    219.502 1114.36 o
    256.697 1160.38 o
    300.363 1201.27 o
    349.826 1235.73 o
    421.491 1269.4 o
    497.869 1289.42 o
    576 1296 o
    654.131 1289.42 o
    730.509 1269.4 o
    802.174 1235.73 o
    851.637 1201.27 o
    895.302 1160.38 o
    932.497 1114.36 o
    962.878 1064.68 o
    986.916 1012.49 o
    1005.15 959.061 o
    1027.94 851.952 o
    1037.86 744.852 o
    1040 640 o
    1037.86 535.148 o
    1027.94 428.048 o
    1005.15 320.94 o
    986.916 267.51 o
    962.878 215.32 o
    932.497 165.642 o
    895.303 119.618 o
    851.637 78.7276 o
    802.174 44.2695 o
    730.509 10.6032 o
    654.131 -9.42165 o
    576 -16 o
    654.131 1289.42 o
    730.509 1269.4 o
    802.174 1235.73 o
    851.637 1201.27 o
    895.303 1160.38 o
    932.497 1114.36 o
    962.878 1064.68 o
    986.916 1012.49 o
    1005.15 959.06 o
    1027.94 851.952 o
    1037.86 744.852 o
    1040 640 o
    1037.86 535.148 o
    1027.94 428.048 o
    1005.15 320.939 o
    986.916 267.511 o
    962.878 215.32 o
    932.497 165.641 o
    895.302 119.617 o
    851.637 78.7271 o
    802.174 44.2695 o
    730.509 10.6032 o
    654.131 -9.42165 o
    576 -16 o
    497.869 -9.42165 o
    421.491 10.6032 o
    349.826 44.2695 o
    300.363 78.7274 o
    256.697 119.618 o
    219.502 165.642 o
    189.122 215.32 o
    165.084 267.511 o
    146.848 320.94 o
    124.058 428.048 o
    114.144 535.148 o
    112 640 o
    114.144 744.852 o
    124.058 851.953 o
    146.848 959.06 o
    165.084 1012.49 o
    189.122 1064.68 o
    219.503 1114.36 o
    256.698 1160.38 o
    300.363 1201.27 o
    349.826 1235.73 o
    421.491 1269.4 o
    497.869 1289.42 o
    0 0 z
  EndSpiro
472 1408 m 1
 334 1408 l 1
 168 1664 l 1
 306 1664 l 1
 472 1408 l 1
856 1408 m 1
 718 1408 l 1
 552 1664 l 1
 690 1664 l 1
 856 1408 l 1
EndSplineSet
Layer: 2
Layer: 3
Layer: 4
EndChar
StartChar: uni0210
Encoding: 528 528 270
GlifName: uni0210
Width: 1024
VWidth: 0
Flags: W
HStem: 0 21G<256 384 920.073 1065> 512 120<384 697.189> 1160 120<384 800.83> 1408 21G<321.031 472 705.031 856>
VStem: 256 128<0 512 632 1160> 912 128<745.363 1047.29>
LayerCount: 5
Back
Fore
SplineSet
605 1280 m 2
 698 1280 813 1275 912 1190 c 0
 986.805664062 1125.77246094 1040 1024 1040 896 c 0
 1040 729.048828125 947.853515625 600.595703125 823.967773438 547.103515625 c 1
 1065 0 l 1
 929 0 l 1
 698.717773438 515.948242188 l 1
 666.0859375 512.53125 634.453125 512 605 512 c 2
 384 512 l 1
 384 0 l 1
 256 0 l 1
 256 1280 l 1
 605 1280 l 2
912 896 m 0
 912 985 876 1058 825 1101 c 0
 757.1640625 1158.1953125 684 1160 605 1160 c 2
 384 1160 l 1
 384 632 l 1
 605 632 l 2
 684 632 757 634 825 691 c 0
 876.123046875 733.853515625 912 807 912 896 c 0
472 1408 m 1
 334 1408 l 1
 168 1664 l 1
 306 1664 l 1
 472 1408 l 1
856 1408 m 1
 718 1408 l 1
 552 1664 l 1
 690 1664 l 1
 856 1408 l 1
EndSplineSet
Layer: 2
Layer: 3
Layer: 4
EndChar
StartChar: uni0216
Encoding: 534 534 273
GlifName: uni0216
Width: 1024
VWidth: 0
Flags: W
HStem: -16 120<409.11 742.813> 1408 21G<236 364 788 916> 1560 120<420.418 731.582>
VStem: 128 128<260.614 1280> 236 128<1408 1502.12> 788 128<1408 1502.12> 896 128<260.614 1280>
LayerCount: 5
Back
Fore
SplineSet
128 1280 m 1xf2
 256 1280 l 1
 256 512 l 2
 256 437 256 378 268 330 c 0
 301 196 416 104 576 104 c 0
 736 104 851 196 884 330 c 0
 896 378 896 437 896 512 c 2
 896 1280 l 1
 1024 1280 l 1
 1024 512 l 2
 1024 426 1024 371 1008 303 c 0
 964 118 797 -16 576 -16 c 0
 355 -16 187 118 144 303 c 0
 128 371 128 426 128 512 c 2
 128 1280 l 1xf2
788 1408 m 1xec
 788 1494 719 1560 576 1560 c 0
 433 1560 364 1494 364 1408 c 1
 236 1408 l 1
 236 1576 388 1680 576 1680 c 0
 764 1680 916 1576 916 1408 c 1
 788 1408 l 1xec
EndSplineSet
Layer: 2
Layer: 3
Layer: 4
EndChar
StartChar: Etatonos
Encoding: 905 905 355
GlifName: E_tatonos
Width: 1024
VWidth: 0
Flags: W
HStem: 0 21G<128 256 896 1024> 644 120<256 896> 1388 20G<128 256 896 1024>
VStem: 128 128<0 644 764 1408> 896 128<0 644 764 1408>
LayerCount: 5
Back
Fore
SplineSet
-50 1438 m 1
 45 1358 l 1
 -161 1131 l 1
 -236 1194 l 1
 -50 1438 l 1
128 1408 m 1
 256 1408 l 1
 256 764 l 1
 896 764 l 1
 896 1408 l 1
 1024 1408 l 1
 1024 0 l 1
 896 0 l 1
 896 644 l 1
 256 644 l 1
 256 0 l 1
 128 0 l 1
 128 1408 l 1
EndSplineSet
Validated: 1
Layer: 2
Layer: 3
Layer: 4
EndChar
StartChar: Iotatonos
Encoding: 906 906 356
GlifName: I_otatonos
Width: 1024
VWidth: 0
Flags: W
HStem: 0 120<256 512 640 896> 1288 120<256 512 640 896>
VStem: 512 128<120 1288>
LayerCount: 5
Back
Fore
SplineSet
80 1438 m 1
 175 1358 l 1
 -31 1131 l 1
 -106 1194 l 1
 80 1438 l 1
896 1408 m 1
 896 1288 l 1
 640 1288 l 1
 640 120 l 1
 896 120 l 1
 896 0 l 1
 256 0 l 1
 256 120 l 1
 512 120 l 1
 512 1288 l 1
 256 1288 l 1
 256 1408 l 1
 896 1408 l 1
EndSplineSet
Validated: 1
Layer: 2
Layer: 3
Layer: 4
EndChar
StartChar: Upsilontonos
Encoding: 910 910 358
GlifName: U_psilontonos
Width: 1024
VWidth: 0
Flags: W
HStem: 0 21G<512 640> 1388 20G<113 270.5 881.5 1039>
VStem: 113 125<1267.75 1408> 512 128<0 675.443> 914 125<1267.75 1408>
CounterMasks: 1 38
LayerCount: 5
Back
Fore
SplineSet
-60 1438 m 1
 35 1358 l 1
 -171 1131 l 1
 -246 1194 l 1
 -60 1438 l 1
113 1408 m 1
 238 1408 l 1
 303 1145 398 921 561 740 c 1
 591 740 l 1
 754 921 849 1145 914 1408 c 1
 1039 1408 l 1
 978 1134 868 871 640 630 c 1
 640 0 l 1
 512 0 l 1
 512 630 l 1
 284 871 174 1134 113 1408 c 1
EndSplineSet
Validated: 1
Layer: 2
Layer: 3
Layer: 4
EndChar
StartChar: Zeta
Encoding: 918 918 278
GlifName: Z_eta
Width: 1024
VWidth: 0
Flags: W
HStem: 0 120<293 1024> 1288 120<148 839>
LayerCount: 5
Back
Fore
SplineSet
148 1288 m 1
 148 1408 l 1
 1004 1408 l 1
 1004 1318 l 1
 293 130 l 1
 293 120 l 1
 1024 120 l 1
 1024 0 l 1
 128 0 l 1
 128 92 l 1
 839 1278 l 1
 839 1288 l 1
 148 1288 l 1
EndSplineSet
Validated: 1
Layer: 2
Layer: 3
Layer: 4
EndChar
StartChar: Iota
Encoding: 921 921 287
GlifName: I_ota
Width: 1024
VWidth: 0
Flags: W
HStem: 0 120<256 512 640 896> 1288 120<256 512 640 896>
VStem: 512 128<120 1288>
AnchorPoint: "bottom" 576 0 basechar 0
AnchorPoint: "top" 576 1408 basechar 0
LayerCount: 5
Back
Fore
SplineSet
896 1408 m 1
 896 1288 l 1
 640 1288 l 1
 640 120 l 1
 896 120 l 1
 896 0 l 1
 256 0 l 1
 256 120 l 1
 512 120 l 1
 512 1288 l 1
 256 1288 l 1
 256 1408 l 1
 896 1408 l 1
EndSplineSet
Validated: 1
Layer: 2
Layer: 3
Layer: 4
EndChar
StartChar: Kappa
Encoding: 922 922 286
GlifName: K_appa
Width: 1024
VWidth: 0
Flags: W
HStem: 0 21G<128 256 890.881 1062> 1388 20G<128 256 813.338 969>
VStem: 128 128<0 558 719 1408>
LayerCount: 5
Back
Fore
SplineSet
256 0 m 1
 128 0 l 1
 128 1408 l 1
 256 1408 l 1
 256 719 l 1
 830 1408 l 1
 969 1408 l 1
 481 813 l 1
 1062 0 l 1
 905 0 l 1
 396 721 l 1
 256 558 l 1
 256 0 l 1
EndSplineSet
Validated: 1
Layer: 2
Layer: 3
Layer: 4
EndChar
StartChar: Xi
Encoding: 926 926 304
GlifName: X_i
Width: 1024
VWidth: 0
Flags: W
HStem: 0 120<128 1024> 644 120<256 896> 1288 120<128 1024>
CounterMasks: 1 e0
LayerCount: 5
Back
Fore
SplineSet
128 1408 m 1
 1024 1408 l 1
 1024 1288 l 1
 128 1288 l 1
 128 1408 l 1
128 120 m 1
 1024 120 l 1
 1024 0 l 1
 128 0 l 1
 128 120 l 1
256 764 m 1
 896 764 l 1
 896 644 l 1
 256 644 l 1
 256 764 l 1
EndSplineSet
Validated: 1
Layer: 2
Layer: 3
Layer: 4
EndChar
StartChar: alphatonos
Encoding: 940 940 338
GlifName: alphatonos
Width: 1024
VWidth: 0
Flags: W
HStem: -16 120<450.208 671.889 924.946 1024> 920 120<450.208 665.175> 1004 20G<768 896> 1131 307
VStem: 224 128<220.345 803.655> 504 281 768 128<219.664 804.336 899 1024>
LayerCount: 5
Back
SplineSet
690.304084305 1437.61186219 m 5
 785.695915695 1358.38813781 l 5
 589.695915695 1122.38813781 l 5
 494.304084305 1201.61186219 l 5
 690.304084305 1437.61186219 l 5
EndSplineSet
Fore
Refer: 350 900 N 1 0 0 1 0 0 2
Refer: 316 945 N 1 0 0 1 0 0 3
Validated: 1
Layer: 2
Layer: 3
Layer: 4
EndChar
StartChar: beta
Encoding: 946 946 346
GlifName: beta
Width: 1024
VWidth: 0
Flags: W
HStem: -16 120<387.334 716.57> 772 120<512 667.887> 1304 120<438.746 669.969>
VStem: 256 128<-384 7 121.52 1246.87> 724 128<949.557 1248.98> 800 128<199.248 660.477>
LayerCount: 5
Back
SplineSet
730 833 m 5xf8
 888 779 928 646 928 438 c 4
 928 178 841 -16 612 -16 c 4
 571 -16 533 -10 504 -5 c 5
 520 113 l 5
 546 108 574 104 592 104 c 4
 772 104 800 264 800 438 c 4xf4
 800 631 749 772 562 772 c 5
 562 892 l 5
 676 892 724 969 724 1098 c 4
 724 1227 666 1304 562 1304 c 4
 420 1304 384 1218 384 1078 c 6
 384 -384 l 5
 256 -384 l 5
 256 1078 l 6
 256 1278 353 1424 562 1424 c 4
 740 1424 852 1283 852 1098 c 4
 852 991 832 893 730 843 c 5
 730 833 l 5xf8
EndSplineSet
Fore
SplineSet
710 833 m 1xf8
 884 779 928 646 928 438 c 0xf4
 928 178 841 -16 612 -16 c 0
 528 -16 449 -5 384 7 c 1
 384 -384 l 1
 256 -384 l 1
 256 1078 l 2
 256 1278 353 1424 562 1424 c 0
 740 1424 852 1283 852 1098 c 0
 852 991 829 893 710 843 c 1
 710 833 l 1xf8
384 128 m 1
 461 115 540 104 592 104 c 0
 772 104 800 264 800 438 c 0xf4
 800 631 758 772 512 772 c 1
 512 892 l 1
 681 892 724 969 724 1098 c 0xf8
 724 1227 666 1304 562 1304 c 0
 420 1304 384 1218 384 1078 c 2
 384 128 l 1
EndSplineSet
Validated: 1
Layer: 2
Layer: 3
Layer: 4
EndChar
StartChar: nu
Encoding: 957 957 302
GlifName: nu
Width: 1024
VWidth: 0
Flags: W
HStem: 0 119<554.548 597.452> 1004 20G<201 356 796 951>
VStem: 201 135<751.021 1024> 816 135<751.021 1024>
LayerCount: 5
Back
Fore
SplineSet
201 1024 m 1
 336 1024 l 1
 376 667 452 364 571 119 c 1
 581 119 l 1
 700 364 776 667 816 1024 c 1
 951 1024 l 1
 912 663 830 318 656 0 c 1
 496 0 l 1
 322 318 240 663 201 1024 c 1
EndSplineSet
Validated: 1
Layer: 2
Layer: 3
Layer: 4
EndChar
StartChar: sigma1
Encoding: 962 962 344
GlifName: sigma1
Width: 1024
VWidth: 0
Flags: W
HStem: -16 120<451.69 756.047> 920 120<458.805 871.765>
VStem: 224 128<215.606 800.244> 787 109<-256 -153>
LayerCount: 5
Back
SplineSet
576 980 m 4
 567.324615992 980.007251186 558.648176326 979.686575923 550 979 c 4
 500.212698242 975.047402205 451.24730177 957.609470253 411.731022518 927.066678635 c 4
 372.214743267 896.523887018 342.838937404 853.986426358 324.215732627 807.644494056 c 4
 286.534676761 713.879056741 287.99919816 610.153669038 287.99919816 508.583706331 c 4
 287.99919816 459.038062985 288.53141353 409.428192902 293.027858177 360.090143434 c 4
 297.627652992 309.618065636 306.905420474 259.094363799 326.841701762 212.498940869 c 4
 346.777983049 165.90351794 378.037105069 123.685454876 419.184847869 94.0974165497 c 4
 460.332590668 64.5093782236 510.452550996 48.6802375801 561 45 c 4
 569.319362365 44.3942873357 577.659008083 44.0808197025 586 44 c 4
 587.323711331 43.9871739528 588.647368725 43.9810691757 589.970975942 43.9810691757 c 4
 616.18482263 43.9810691757 642.378988765 46.3755593902 668.582700333 46.3755593902 c 4
 672.126402032 46.3755593902 675.670278307 46.3317666865 679.214401444 46.2323365234 c 4
 710.288605264 45.3605515898 742.002232568 39.0435395548 768 22 c 4
 795.22899687 4.14929468799 814.194153248 -24.7479243463 823.095199423 -56.0662469018 c 4
 831.996245597 -87.3845694573 832 -120.441345994 832 -153 c 6
 832 -256 l 5
 864 512 l 5
 889.458423521 557.864559298 903.006199357 610.269542077 903.006199357 662.724667915 c 4
 903.006199357 717.19149578 888.6849136 770.328900228 862.045988338 817.125790647 c 4
 835.751595774 863.31743672 797.547881042 902.605503401 752.321550093 930.527577751 c 4
 707.095219144 958.449652102 654.998206093 974.968449668 602 979 c 4
 593.349884349 979.65801051 584.675103805 979.992749048 576 980 c 4
  Spiro
    576 980 o
    550 979 o
    288 512 o
    561 45 o
    586 44 o
    768 22 o
    832 -153 [
    832 -256 v
    864 512 v
    602 979 o
    0 0 z
  EndSpiro
EndSplineSet
Fore
SplineSet
352 512 m 0
 352 410 352 308 384 235 c 0
 420 152 485 104 587 104 c 0
 613 104 647 106 681 106 c 0
 791 106 862 41 885 -41 c 0
 896 -81 896 -121 896 -153 c 0
 896 -256 l 1
 787 -256 l 1
 777 -153 l 2
 769 -71 758 -14 677 -14 c 0
 649 -14 620 -16 585 -16 c 0
 417 -15 311 78 264 193 c 0
 226 286 224 391 224 512 c 0
 224 633 226 738 267 831 c 0
 317 946 418 1040 606 1040 c 0
 709 1040 786 1032 876 1023 c 1
 876 903 l 1
 785 912 702 920 606 920 c 0
 486 920 427 872 387 789 c 0
 352 716 352 614 352 512 c 0
EndSplineSet
Validated: 1
Layer: 2
SplineSet
967.005859375 662.724609375 m 1
 839.005859375 662.724609375 l 1
 839.005859375 707.336914062 827.239257812 750.833007812 805.583007812 788.876953125 c 0
 784.296875 826.272460938 753.177734375 858.157226562 717.12109375 880.41796875 c 0
 681.05859375 902.682617188 639.182617188 915.974609375 596.822265625 919.196289062 c 0
 589.870117188 919.725585938 582.90234375 919.994140625 575.942382812 920 c 0
 568.985351562 920.005859375 562.131835938 919.748046875 555.400390625 919.213867188 c 0
 517.73828125 916.224609375 481.129882812 902.944335938 452.443359375 880.771484375 c 0
 423.43359375 858.349609375 399.532226562 824.876953125 384.106445312 786.491210938 c 0
 352.096679688 706.837890625 351.999023438 611.154296875 351.999023438 508.583984375 c 0
 351.999023438 459.436523438 352.572265625 411.538085938 356.795898438 365.197265625 c 0
 361.088867188 318.088867188 369.708007812 273.478515625 386.241210938 234.836914062 c 0
 402.620117188 196.555664062 427.913085938 163.4375 458.134765625 141.706054688 c 0
 488.041992188 120.200195312 526.092773438 107.72265625 565.958007812 104.819335938 c 0
 572.682617188 104.330078125 579.584960938 104.065429688 586.661132812 103.997070312 c 4
 587.763671875 103.986328125 588.868164062 103.981445312 589.970703125 103.981445312 c 4
 612.030273438 103.981445312 638.224609375 106.375 668.583007812 106.375 c 4
 672.674804688 106.375 676.872070312 106.325195312 681.12890625 106.205078125 c 4
 719.6640625 105.125 764.50390625 97.505859375 804.676757812 71.169921875 c 4
 847.0703125 43.376953125 872.87109375 1.8388671875 884.936523438 -40.6171875 c 4
 896.716796875 -82.0634765625 896 -120.58984375 896 -153 c 4
 896 -256 l 5
 768 -256 l 5
 768 -153 l 4
 768 -120.29296875 767.275390625 -92.705078125 761.252929688 -71.5146484375 c 4
 755.517578125 -51.333984375 743.38671875 -35.0791015625 731.323242188 -27.169921875 c 4
 719.5 -19.4189453125 700.9140625 -14.4033203125 677.30078125 -13.7412109375 c 4
 674.467773438 -13.6611328125 671.577148438 -13.625 668.583007812 -13.625 c 4
 646.533203125 -13.625 620.338867188 -16.0185546875 589.970703125 -16.0185546875 c 4
 588.426757812 -16.0185546875 586.8828125 -16.01171875 585.338867188 -15.99609375 c 4
 575.733398438 -15.9033203125 565.956054688 -15.5419921875 556.041992188 -14.8193359375 c 0
 494.811523438 -10.361328125 432.624023438 8.8173828125 380.234375 46.48828125 c 0
 328.161132812 83.9326171875 290.936523438 135.250976562 267.442382812 190.162109375 c 0
 244.102539062 244.709960938 234.166992188 301.146484375 229.260742188 354.982421875 c 0
 224.490234375 407.318359375 223.999023438 458.639648438 223.999023438 508.583984375 c 0
 223.999023438 609.153320312 220.973632812 720.918945312 264.325195312 828.797851562 c 0
 286.145507812 883.095703125 320.99609375 934.698242188 371.01953125 973.361328125 c 0
 421.364257812 1012.27441406 482.6875 1033.87109375 544.599609375 1038.78613281 c 0
 555.165039062 1039.625 565.663085938 1040.00878906 576.057617188 1040 c 0
 586.447265625 1039.99121094 596.829101562 1039.59082031 607.177734375 1038.80371094 c 0
 670.813476562 1033.96289062 733.1328125 1014.21777344 787.521484375 980.63671875 c 0
 841.91796875 947.0546875 887.20703125 900.36328125 918.508789062 845.374023438 c 0
 950.129882812 789.826171875 967.005859375 727.045898438 967.005859375 662.724609375 c 1
EndSplineSet
Layer: 3
Layer: 4
EndChar
StartChar: sigma
Encoding: 963 963 311
GlifName: sigma
Width: 1024
VWidth: 0
Flags: W
HStem: -16 120<449.014 702.986> 904 120<847 1024> 920 120<449.014 857.641>
VStem: 224 128<213.2 810.8> 800 128<213.2 809.008>
LayerCount: 5
Back
Fore
SplineSet
576 920 m 0xb8
 480 920 416 868 384 789 c 0
 354 714 352 614 352 512 c 0
 352 410 354 310 384 235 c 0
 416 156 480 104 576 104 c 0
 672 104 736 156 768 235 c 0
 798 310 800 410 800 512 c 0
 800 614 798 714 768 789 c 0
 736 868 672 920 576 920 c 0xb8
847 904 m 1xd8
 916 807 928 670 928 512 c 0
 928 391 926 290 888 195 c 0
 842 79 736 -16 576 -16 c 0
 416 -16 310 79 264 195 c 0
 226 290 224 391 224 512 c 0
 224 633 226 734 264 829 c 0
 310 945 416 1040 576 1040 c 0xb8
 615 1040 651 1034 684 1024 c 1
 1024 1024 l 1
 1024 904 l 1
 847 904 l 1xd8
EndSplineSet
Validated: 1
Layer: 2
Layer: 3
Layer: 4
EndChar
StartChar: psi
Encoding: 968 968 315
GlifName: psi
Width: 1024
VWidth: 0
Flags: W
HStem: -14 121<363.535 512 640 788.465> 1004 20G<128 256 896 1024> 1388 20G<512 640>
VStem: 128 128<205.699 1024> 512 128<-384 -9.79718 107 1408> 896 128<205.699 1024>
CounterMasks: 1 1c
LayerCount: 5
Back
SplineSet
128 1024 m 5
 256 1024 l 5
 256 384 l 6
 256 335.671875 258.29296875 291.951171875 270.64453125 256.064453125 c 4
 283.040039062 220.046875 306.397460938 187.731445312 335.600585938 165.03125 c 4
 365.231445312 141.998046875 402.821289062 126.235351562 443.888671875 116.91796875 c 4
 465.847785878 111.935419067 488.618017362 108.61269139 512 106.586294585 c 5
 512 1408 l 5
 640 1408 l 5
 640 106.586328001 l 5
 663.381960598 108.612727919 686.152334827 111.935446456 708.111328125 116.91796875 c 4
 749.174804688 126.234375 786.770507812 142 816.399414062 165.03125 c 4
 845.6015625 187.73046875 868.958984375 220.044921875 881.35546875 256.064453125 c 4
 893.708984375 291.95703125 896 335.66015625 896 384 c 6
 896 1024 l 5
 1024 1024 l 5
 1024 384 l 6
 1024 333.547851562 1022.96875 276.735351562 1003.171875 219.21484375 c 4
 983.41796875 161.821289062 946.89453125 110.584960938 898.098632812 72.654296875 c 4
 849.729492188 35.0556640625 793.499023438 12.8271484375 738.220703125 0.2841796875 c 4
 705.322845477 -7.17969995965 672.445075289 -11.5525777273 640 -13.8546461515 c 5
 640 -384 l 5
 512 -384 l 5
 512 -13.8546162003 l 5
 479.554991948 -11.5525397983 446.67701185 -7.17966758999 413.779296875 0.2841796875 c 4
 358.504882812 12.826171875 302.268554688 35.0576171875 253.901367188 72.654296875 c 4
 205.106445312 110.583984375 168.583007812 161.819335938 148.828125 219.21484375 c 4
 129.029296875 276.741210938 128 333.536132812 128 384 c 6
 128 1024 l 5
EndSplineSet
Fore
SplineSet
512 -14 m 1
 336 -1 199 75 149 219 c 0
 129 277 128 334 128 384 c 2
 128 1024 l 1
 256 1024 l 1
 256 384 l 2
 256 336 259 292 271 256 c 0
 304 160 394 117 512 107 c 1
 512 1408 l 1
 640 1408 l 1
 640 107 l 1
 758 117 848 160 881 256 c 0
 893 292 896 336 896 384 c 2
 896 1024 l 1
 1024 1024 l 1
 1024 384 l 2
 1024 334 1023 277 1003 219 c 0
 953 75 816 -1 640 -14 c 1
 640 -384 l 1
 512 -384 l 1
 512 -14 l 1
EndSplineSet
Validated: 1
Layer: 2
SplineSet
192 1024 m 1
 192 384 l 2
 192 334.604344054 193.661584857 284.346707098 209.736677093 237.639938467 c 0
 225.811769329 190.933169837 255.751576879 149.158008031 294.750693005 118.84299908 c 0
 333.749809139 88.5279901396 380.66296328 69.5308243768 428.834305148 58.6013848211 c 0
 477.005647015 47.6719452654 526.604344054 43.9999999875 576 44 c 0
 625.395655946 44 674.994352983 47.6719452904 723.165694848 58.6013848582 c 0
 771.337036712 69.530824426 818.250190848 88.5279902006 857.249306974 118.842999151 c 0
 896.248423097 149.158008089 926.188230648 190.933169882 942.263322888 237.6399385 c 0
 958.338415128 284.346707118 959.999999992 334.604344064 960 384 c 2
 960 1021 l 1025
  Spiro
    192 1024 {
    192 384 ]
    576 44 o
    960 384 [
    960 1021 v
    0 0 z
  EndSpiro
EndSplineSet
Layer: 3
Layer: 4
EndChar
StartChar: omega
Encoding: 969 969 314
GlifName: omega
Width: 1024
VWidth: 0
Flags: W
HStem: -16 120<285.865 481.431 670.569 866.135> 1004 20G<128 256 896 1024>
VStem: 128 128<133.322 1024> 512 128<133.192 768> 896 128<133.322 1024>
CounterMasks: 1 38
AnchorPoint: "top" 576 1024 basechar 0
LayerCount: 5
Back
Fore
SplineSet
571 84 m 1
 527 11 461 -16 384 -16 c 0
 258 -16 162 61 137 167 c 0
 128 204 128 236 128 264 c 2
 128 1024 l 1
 256 1024 l 1
 256 264 l 2
 256 239 256 219 262 193 c 0
 274 140 321 104 384 104 c 0
 447 104 494 140 506 193 c 0
 512 219 512 239 512 264 c 2
 512 768 l 1
 640 768 l 1
 640 264 l 2
 640 239 640 219 646 193 c 0
 658 140 705 104 768 104 c 0
 831 104 878 140 890 193 c 0
 896 219 896 239 896 264 c 2
 896 1024 l 1
 1024 1024 l 1
 1024 264 l 2
 1024 236 1024 204 1015 167 c 0
 990 61 894 -16 768 -16 c 0
 691 -16 625 11 581 84 c 1
 571 84 l 1
EndSplineSet
Validated: 1
Layer: 2
Layer: 3
Layer: 4
EndChar
StartChar: uni0402
Encoding: 1026 1026 256
GlifName: uni0402
Width: 1024
VWidth: 0
Flags: W
HStem: -272 120<640 769.053> 0 21G<256 384> 792 120<519.524 773.439> 1288 120<128 256 384 640>
VStem: 256 128<0 652.241 730 1288> 896 128<-12.8243 657.844>
LayerCount: 5
Back
SplineSet
960 399 m 1
 960 234 l 2
 960 182.278320312 959.59765625 130.298828125 951.053710938 79.287109375 c 0
 942.509765625 28.2763671875 925.739257812 -21.705078125 898.38671875 -65.6015625 c 0
 871.034179688 -109.499023438 833.16796875 -146.983398438 788.278320312 -172.67578125 c 0
 743.388671875 -198.3671875 691.721679688 -212.133789062 640 -212 c 1024
  Spiro
    960 399 {
    960 234 ]
    640 -212 v
    0 0 z
  EndSpiro
EndSplineSet
Fore
SplineSet
896 234 m 2
 896 384 l 2
 896 455 896 518 887 566 c 0
 861 700 768 792 640 792 c 0
 513 792 425 699 395 566 c 0
 384 518 384 455 384 384 c 2
 384 0 l 1
 256 0 l 1
 256 1288 l 1
 128 1288 l 1
 128 1408 l 1
 640 1408 l 1
 640 1288 l 1
 384 1288 l 1
 384 730 l 1
 394 730 l 1
 459 843 543 912 660 912 c 0
 839 912 972 777 1010 593 c 0
 1024 525 1024 465 1024 384 c 2
 1024 234 l 2
 1024 182 1024 127 1014 70 c 0
 983 -112 854 -272 642 -272 c 0
 641 -272 641 -272 640 -272 c 1
 640 -152 l 1
 784 -152 867 -38 888 89 c 0
 896 134 896 183 896 234 c 2
EndSplineSet
Validated: 1
Layer: 2
SplineSet
896 234 m 5
 1024 234 l 5
 1024 182.015625 1023.80859375 126.874023438 1014.27929688 69.98046875 c 4
 1004.74902344 13.0849609375 985.934570312 -44.052734375 953.6484375 -95.865234375 c 4
 921.366210938 -147.674804688 876.481445312 -192.491210938 821.625976562 -223.88671875 c 4
 766.814453125 -255.256835938 703.755859375 -272.165039062 639.823242188 -272 c 5
 640.176757812 -152.000976562 l 5
 679.6875 -152.102539062 719.962890625 -141.477539062 754.930664062 -121.46484375 c 4
 789.854492188 -101.475585938 820.702148438 -71.3232421875 843.125 -35.3369140625 c 4
 865.543945312 0.642578125 880.270507812 43.4677734375 887.828125 88.5947265625 c 4
 895.38671875 133.72265625 896 182.541992188 896 234 c 5
EndSplineSet
Layer: 3
Layer: 4
EndChar
StartChar: uni0409
Encoding: 1033 1033 250
GlifName: uni0409
Width: 1024
VWidth: 0
Flags: W
HStem: -16 120<128 236.842> 0 120<640 804.014> 648 120<640 804.014> 1288 120<384 512>
VStem: 243 141<847.688 1288> 512 128<120 648 768 1288> 912 128<228.115 539.885>
LayerCount: 5
Back
Fore
SplineSet
361 72 m 0x7e
 349 -14 236 -16 128 -16 c 1
 128 104 l 1xbe
 188 104 237 106 243 161 c 0
 255 287 256 683 256 1408 c 1
 384 1408 512 1408 640 1408 c 1
 640 768 l 1
 675 768 712 768 776 752 c 0
 928 714 1040 575 1040 384 c 0
 1040 193 928 54 776 16 c 0
 712 0 675 0 640 0 c 2
 512 0 l 1
 512 1288 l 1
 384 1288 l 1
 384 640 384 236 361 72 c 0x7e
640 648 m 1
 640 472 640 296 640 120 c 1x7e
 671 120 699 120 744 132 c 0
 843 158 912 254 912 384 c 0
 912 514 843 610 744 636 c 0
 699 648 671 648 640 648 c 1
EndSplineSet
Validated: 1
Layer: 2
Layer: 3
Layer: 4
EndChar
StartChar: uni040B
Encoding: 1035 1035 254
GlifName: uni040B_
Width: 1024
VWidth: 0
Flags: W
HStem: 0 21G<256 384 896 1024> 792 120<519.524 773.439> 1288 120<128 256 384 640>
VStem: 256 128<0 652.241 730 1288> 896 128<0 657.844>
LayerCount: 5
Back
SplineSet
1024 0 m 5
 896 0 l 5
 896 384 l 6
 896 455 896 518 884 566 c 4
 851 700 736 792 576 792 c 4
 416 792 301 700 268 566 c 4
 256 518 256 455 256 384 c 6
 256 0 l 5
 128 0 l 5
 128 1408 l 5
 256 1408 l 5
 256 730 l 5
 266 730 l 5
 347 843 451 912 596 912 c 4
 807 912 968 778 1009 593 c 4
 1024 525 1024 465 1024 384 c 6
 1024 0 l 5
EndSplineSet
Fore
SplineSet
1024 0 m 1
 896 0 l 1
 896 384 l 2
 896 455 896 518 887 566 c 0
 861 700 768 792 640 792 c 0
 513 792 425 699 395 566 c 0
 384 518 384 455 384 384 c 2
 384 0 l 1
 256 0 l 1
 256 1288 l 1
 128 1288 l 1
 128 1408 l 1
 640 1408 l 1
 640 1288 l 1
 384 1288 l 1
 384 730 l 1
 394 730 l 1
 459 843 543 912 660 912 c 0
 839 912 972 777 1010 593 c 0
 1024 525 1024 465 1024 384 c 2
 1024 0 l 1
EndSplineSet
Validated: 1
Layer: 2
Layer: 3
Layer: 4
EndChar
StartChar: uni040E
Encoding: 1038 1038 255
GlifName: uni040E_
Width: 1024
VWidth: 0
Flags: W
HStem: -16 114<128 427.703> 1388 20G<137 288 845.5 1015> 1520 120<420.418 731.582>
VStem: 137 125<1174.63 1408> 236 128<1697.88 1792> 788 128<1697.88 1792> 880 135<1250.34 1408>
LayerCount: 5
Back
SplineSet
481 384 m 5
 272.067650809 712 183.831062869 1047 137 1408 c 5
 272 1408 l 5
 322.494915254 1035.11663067 417.213135594 716.399568035 576 462 c 5
 586 462 l 5
 722.06876277 790.264324494 813.296805054 1103.64901129 880 1408 c 5
 1015 1408 l 5
 909.761770357 964.039664217 768.412950566 524.353386837 556 111 c 4
 509.713110185 20.9261950824 410.183488425 -16 256 -16 c 5
 256 98 l 5
 364.776889414 98 425.202637764 108.193235441 455 160 c 4
 495.63864039 230.65580027 528.520425697 301.334983342 559 384 c 5
 481 384 l 5
EndSplineSet
Fore
Refer: 145 774 N 1 0 0 1 0 256 2
Refer: 176 1059 N 1 0 0 1 0 0 3
Validated: 1
Layer: 2
Layer: 3
Layer: 4
EndChar
StartChar: uni0413
Encoding: 1043 1043 160
GlifName: uni0413
Width: 1024
VWidth: 0
Flags: W
HStem: 0 21G<256 384> 1288 120<384 1024>
VStem: 256 128<0 1288>
AnchorPoint: "top" 576 1408 basechar 0
LayerCount: 5
Back
Fore
SplineSet
256 1408 m 1
 1024 1408 l 1
 1024 1288 l 1
 384 1288 l 1
 384 0 l 1
 256 0 l 1
 256 1408 l 1
EndSplineSet
Validated: 1
Layer: 2
Layer: 3
Layer: 4
EndChar
StartChar: uni0424
Encoding: 1060 1060 177
GlifName: uni0424
Width: 1024
VWidth: 0
Flags: W
HStem: 0 21G<512 640> 115 122<396.621 512 640 755.379> 1171 122<396.621 512 640 755.379> 1388 20G<512 640>
VStem: 112 128<418.015 989.985> 512 128<0 120.073 237 1171 1287.93 1408> 912 128<418.015 989.985>
CounterMasks: 1 0e
LayerCount: 5
Back
SplineSet
576 1364 m 0
 643.232974455 1364 710.624752961 1346.04787984 768 1311 c 0
 815.850534785 1281.77032553 856.230827797 1240.84198324 886.44733169 1193.60840999 c 0
 916.663835583 1146.37483675 936.888479806 1093.21313869 949.871199277 1038.6650265 c 0
 975.836638219 929.568802112 976 816.143614152 976 704 c 0
 976 591.856385848 975.836638219 478.431197888 949.871199277 369.3349735 c 0
 936.888479806 314.786861307 916.663835583 261.625163249 886.44733169 214.391590007 c 0
 856.230827797 167.158016764 815.850534786 126.229674468 768 97 c 0
 710.624752961 61.9521201594 643.232974455 44 576 44 c 0
 508.767025545 44 441.375247039 61.9521201594 384 97 c 0
 336.149465215 126.229674468 295.769172203 167.158016764 265.55266831 214.391590006 c 0
 235.336164417 261.625163249 215.111520194 314.786861307 202.128800723 369.3349735 c 0
 176.163361781 478.431197888 176 591.856385848 176 704 c 0
 176 816.143614152 176.163361781 929.568802112 202.128800723 1038.6650265 c 0
 215.111520194 1093.21313869 235.336164417 1146.37483675 265.55266831 1193.60840999 c 0
 295.769172203 1240.84198324 336.149465214 1281.77032553 384 1311 c 0
 441.375247039 1346.04787984 508.767025545 1364 576 1364 c 0
  Spiro
    576 1364 o
    768 1311 o
    976 704 o
    768 97 o
    576 44 o
    384 97 o
    176 704 o
    384 1311 o
    0 0 z
  EndSpiro
EndSplineSet
Fore
SplineSet
640 237 m 1
 768 257 849 336 884 453 c 0
 907 530 912 616 912 704 c 0
 912 792 907 878 884 955 c 0
 849 1072 768 1151 640 1171 c 1
 640 237 l 1
240 704 m 0
 240 616 245 530 268 453 c 0
 303 336 384 257 512 237 c 1
 512 1171 l 1
 384 1151 303 1072 268 955 c 0
 245 878 240 792 240 704 c 0
112 704 m 0
 112 796 116 893 145 988 c 0
 196 1153 320 1272 512 1293 c 1
 512 1408 l 1
 640 1408 l 1
 640 1293 l 1
 832 1272 956 1153 1007 988 c 0
 1036 893 1040 796 1040 704 c 0
 1040 612 1036 515 1007 420 c 0
 956 255 832 136 640 115 c 1
 640 0 l 1
 512 0 l 1
 512 115 l 1
 320 136 196 255 145 420 c 0
 116 515 112 612 112 704 c 0
EndSplineSet
Validated: 1
Layer: 2
SplineSet
576 1236 m 0
 649.71257311 1236 724.581023375 1220.57095738 788 1183 c 0
 826.738720627 1160.05023166 860.540530541 1128.92353416 886.97797457 1092.4757373 c 0
 913.415418598 1056.02794044 932.52711761 1014.56624926 945.624588147 971.48682717 c 0
 971.819529221 885.327982982 976 794.052880963 976 704 c 0
 976 613.947119037 971.819529221 522.672017018 945.624588147 436.51317283 c 0
 932.52711761 393.433750736 913.415418598 351.972059556 886.97797457 315.5242627 c 0
 860.540530541 279.076465843 826.738720627 247.949768335 788 225 c 0
 724.581023375 187.429042621 649.71257311 172 576 172 c 0
 502.28742689 172 427.418976625 187.429042621 364 225 c 0
 325.261279373 247.949768335 291.459469459 279.076465843 265.02202543 315.5242627 c 0
 238.584581402 351.972059556 219.472882391 393.433750736 206.375411853 436.51317283 c 0
 180.180470779 522.672017018 176 613.947119037 176 704 c 0
 176 794.052880963 180.180470779 885.327982982 206.375411853 971.48682717 c 0
 219.47288239 1014.56624926 238.584581402 1056.02794044 265.02202543 1092.4757373 c 0
 291.459469459 1128.92353416 325.261279373 1160.05023166 364 1183 c 0
 427.418976625 1220.57095738 502.28742689 1236 576 1236 c 0
  Spiro
    576 1236 o
    788 1183 o
    976 704 o
    788 225 o
    576 172 o
    364 225 o
    176 704 o
    364 1183 o
    0 0 z
  EndSpiro
EndSplineSet
Layer: 3
SplineSet
576 1176 m 4
 511.551757812 1176 448.9375 1162.34375 398.189453125 1132.27832031 c 4
 367.32421875 1113.99316406 339.662109375 1088.67773438 317.946289062 1058.73730469 c 4
 296.138671875 1028.67382812 279.500976562 993.119140625 267.923828125 955.040039062 c 4
 244.504882812 878.010742188 240 792.418945312 240 704 c 4
 240 615.580078125 244.504882812 529.990234375 267.923828125 452.959960938 c 4
 279.500976562 414.8828125 296.140625 379.32421875 317.9453125 349.264648438 c 4
 339.663085938 319.321289062 367.32421875 294.005859375 398.188476562 275.721679688 c 4
 448.9375 245.65625 511.551757812 232 576 232 c 4
 640.448242188 232 703.0625 245.65625 753.810546875 275.721679688 c 4
 784.674804688 294.005859375 812.337890625 319.322265625 834.053710938 349.262695312 c 4
 855.861328125 379.327148438 872.499023438 414.880859375 884.076171875 452.959960938 c 4
 907.495117188 529.989257812 912 615.580078125 912 704 c 4
 912 792.419921875 907.495117188 878.009765625 884.076171875 955.041015625 c 4
 872.499023438 993.1171875 855.860351562 1028.67480469 834.0546875 1058.73730469 c 4
 812.336914062 1088.67871094 784.67578125 1113.99316406 753.811523438 1132.27832031 c 4
 703.0625 1162.34277344 640.447265625 1176 576 1176 c 4
  Spiro
    576 1176 o
    512.597 1171.36 o
    452.464 1156.96 o
    398.189 1132.28 o
    368.522 1111.76 o
    341.517 1087.02 o
    317.946 1058.74 o
    297.876 1026.99 o
    281.177 992.132 o
    267.924 955.04 o
    250.288 875.451 o
    242.031 791.178 o
    240 704 o
    242.031 616.822 o
    250.288 532.549 o
    267.924 452.96 o
    281.177 415.869 o
    297.877 381.013 o
    317.945 349.265 o
    341.517 320.98 o
    368.522 296.238 o
    398.188 275.722 o
    452.464 251.043 o
    512.597 236.645 o
    576 232 o
    639.403 236.645 o
    699.536 251.043 o
    753.811 275.722 o
    783.478 296.238 o
    810.483 320.979 o
    834.054 349.263 o
    854.124 381.014 o
    870.823 415.868 o
    884.076 452.96 o
    901.712 532.549 o
    909.969 616.821 o
    912 704 o
    909.969 791.178 o
    901.712 875.451 o
    884.076 955.041 o
    870.823 992.131 o
    854.124 1026.99 o
    834.055 1058.74 o
    810.483 1087.02 o
    783.478 1111.76 o
    753.812 1132.28 o
    699.536 1156.96 o
    639.403 1171.36 o
    0 0 z
  EndSpiro
576 1296 m 4
 658.978515625 1296 746.099609375 1278.79882812 822.188476562 1233.72070312 c 4
 868.80078125 1206.10742188 908.745117188 1169.16894531 939.900390625 1126.21484375 c 4
 970.969726562 1083.38085938 992.555664062 1036.01464844 1007.17382812 987.93359375 c 4
 1036.14355469 892.645507812 1040 795.685546875 1040 704 c 4
 1040 612.314453125 1036.14355469 515.354492188 1007.17382812 420.06640625 c 4
 992.555664062 371.987304688 970.96875 324.6171875 939.901367188 281.786132812 c 4
 908.744140625 238.831054688 868.801757812 201.893554688 822.189453125 174.278320312 c 4
 746.099609375 129.201171875 658.977539062 112 576 112 c 4
 493.022460938 112 405.900390625 129.200195312 329.811523438 174.278320312 c 4
 283.19921875 201.892578125 243.254882812 238.83203125 212.099609375 281.78515625 c 4
 181.029296875 324.619140625 159.444335938 371.986328125 144.826171875 420.067382812 c 4
 115.856445312 515.353515625 112 612.314453125 112 704 c 4
 112 795.685546875 115.856445312 892.645507812 144.826171875 987.934570312 c 4
 159.444335938 1036.01367188 181.03125 1083.38183594 212.098632812 1126.21386719 c 4
 243.255859375 1169.16992188 283.19921875 1206.10644531 329.810546875 1233.72070312 c 4
 405.900390625 1278.79882812 493.022460938 1296 576 1296 c 4
  Spiro
    576 1296 o
    659.713 1289.88 o
    743.066 1269.87 o
    822.188 1233.72 o
    866.458 1203.16 o
    905.931 1167 o
    939.9 1126.21 o
    967.877 1082.06 o
    990.159 1035.59 o
    1007.17 987.934 o
    1028.55 892.441 o
    1037.93 797.092 o
    1040 704 o
    1037.93 610.908 o
    1028.55 515.559 o
    1007.17 420.066 o
    990.159 372.413 o
    967.877 325.943 o
    939.901 281.786 o
    905.931 240.998 o
    866.458 204.845 o
    822.189 174.278 o
    743.066 138.125 o
    659.713 118.116 o
    576 112 o
    492.287 118.116 o
    408.934 138.125 o
    329.812 174.278 o
    285.542 204.845 o
    246.069 240.998 o
    212.1 281.785 o
    184.123 325.943 o
    161.84 372.413 o
    144.826 420.067 o
    123.455 515.559 o
    114.068 610.908 o
    112 704 o
    114.068 797.092 o
    123.455 892.441 o
    144.826 987.935 o
    161.841 1035.59 o
    184.123 1082.06 o
    212.099 1126.21 o
    246.069 1167 o
    285.542 1203.15 o
    329.811 1233.72 o
    408.934 1269.87 o
    492.287 1289.88 o
    0 0 z
  EndSpiro
EndSplineSet
Layer: 4
EndChar
StartChar: uni0427
Encoding: 1063 1063 180
GlifName: uni0427
Width: 1024
VWidth: 0
Flags: W
HStem: 0 21G<896 1024> 496 120<406.99 729.438> 1388 20G<128 256 896 1024>
VStem: 128 128<772.614 1408> 896 128<0 678 765.962 1408>
LayerCount: 5
Back
Fore
SplineSet
128 1408 m 1
 256 1408 l 1
 256 1024 l 2
 256 953 256 890 268 842 c 0
 301 708 416 616 576 616 c 0
 736 616 851 708 884 842 c 0
 896 890 896 953 896 1024 c 2
 896 1408 l 1
 1024 1408 l 1
 1024 0 l 1
 896 0 l 1
 896 678 l 1
 886 678 l 1
 805 565 701 496 556 496 c 0
 345 496 184 630 143 815 c 0
 128 883 128 943 128 1024 c 2
 128 1408 l 1
EndSplineSet
Validated: 1
Layer: 2
Layer: 3
Layer: 4
EndChar
StartChar: uni0432
Encoding: 1074 1074 191
GlifName: uni0432
Width: 1024
VWidth: 0
Flags: W
HStem: 0 120<384 737.787> 516 120<384 737.787> 904 120<384 747.325>
VStem: 256 128<120 516 636 904> 780 128<665.815 873.86> 800 128<184.11 452.16>
LayerCount: 5
Back
SplineSet
250 64 m 1
 564 64 l 2
 600.090634995 64 636.568008653 64.7622595693 671.501825515 73.8266058663 c 0
 706.435642378 82.8909521633 739.350208494 100.122966347 765.892445916 124.577895646 c 0
 792.434683337 149.032824945 812.450001128 180.217005628 825.257896391 213.958549061 c 0
 838.065791655 247.700092494 844.000000002 283.909365005 844 320 c 0
 844 356.090634995 838.065791651 392.299907507 825.257896385 426.04145094 c 0
 812.45000112 459.782994373 792.434683327 490.967175055 765.892445905 515.422104353 c 0
 739.350208484 539.877033651 706.43564237 557.109047835 671.501825509 566.173394132 c 0
 636.568008649 575.237740429 600.090634994 575.999999999 564 576 c 2
 250 576 l 1
 624 576 l 2
 651.714711887 576 679.691153786 576.512031429 706.632342798 583.014153359 c 0
 733.57353181 589.51627529 759.189749935 601.939956758 780.241767246 619.965433786 c 0
 801.293784557 637.990910815 817.63755532 661.303335918 828.263761507 686.899995799 c 0
 838.889967693 712.49665568 844.000000001 740.285288113 844 768 c 0
 844 795.714711887 838.889967691 823.503344321 828.263761504 849.100004202 c 0
 817.637555316 874.696664082 801.293784552 898.009089185 780.24176724 916.034566213 c 0
 759.18974993 934.060043242 733.573531806 946.483724709 706.632342795 952.98584664 c 0
 679.691153784 959.487968571 651.714711886 960 624 960 c 2
 250 960 l 1025
  Spiro
    250 64 {
    564 64 ]
    844 320 o
    564 576 [
    250 576 v
    624 576 ]
    844 768 o
    624 960 [
    250 960 v
    0 0 z
  EndSpiro
EndSplineSet
Fore
SplineSet
384 636 m 1xf8
 624 636 l 2
 649 636 672 636 691 641 c 0
 745 654 780 702 780 770 c 0
 780 838 745 886 691 899 c 0
 674 903 651 904 624 904 c 2
 384 904 l 1
 384 636 l 1xf8
384 120 m 1
 584 120 l 2
 619 120 649 122 674 128 c 0
 752 148 800 220 800 318 c 0xf4
 800 416 752 489 674 508 c 0
 649 514 619 516 584 516 c 2
 384 516 l 1
 384 120 l 1
256 0 m 1
 256 1024 l 1
 624 1024 l 2
 652 1024 686 1024 723 1015 c 0
 829 989 908 899 908 770 c 0xf8
 908 681 861 612 796 572 c 1
 875 515 928 428 928 318 c 0
 928 159 838 46 709 12 c 0
 664 0 621 0 584 0 c 2
 256 0 l 1
EndSplineSet
Validated: 1
Layer: 2
Layer: 3
Layer: 4
EndChar
StartChar: uni0437
Encoding: 1079 1079 196
GlifName: uni0437
Width: 1024
VWidth: 0
Flags: W
HStem: -16 120<256 718.486> 512 120<384 717.059> 920 120<280.521 727.338>
VStem: 800 128<183.742 431.902 697.898 851.179>
LayerCount: 5
Back
SplineSet
576 980 m 0
 523.031507094 979.940337843 470.52172439 970.295394104 419 958 c 0
 341.136723576 939.418330205 264.309693597 916.764863199 187 896 c 1
 0 725 l 1
 384 572 l 1
 523 572 l 2
 568.503994246 572 614.299118778 572.113968578 659.057337527 580.318561606 c 0
 703.815556276 588.523154634 747.701490161 605.283651077 783 634 c 0
 804.214236629 651.258389205 822.127274874 672.697110343 834.554859237 697.057959684 c 0
 847.131853075 721.711685065 854.002979681 749.027173606 854.002979681 776.981034765 c 0
 854.002979681 821.088816024 835.945004902 864.602610342 806 897 c 0
 771.277772792 934.56584874 722.760339245 957.136834652 673 969 c 0
 641.439820739 976.524137308 608.956948095 980.000288312 576.511860137 980.000288312 c 0
 576 980 l 0
  Spiro
    576 980 o
    419 958 o
    187 896 v
    0 725 v
    384 572 v
    523 572 ]
    783 634 o
    854 776 o
    806 897 o
    673 969 o
    0 0 z
  EndSpiro
783 499 m 0
 748.830168342 530.339160614 705.557530298 550.882589957 660.356647407 561.207345127 c 0
 615.155764515 571.532100296 568.365077197 572 522 572 c 2
 384 572 l 1
 0 482 l 1
 132 138 l 1
 209.358706692 121.97875915 285.696163102 101.463971614 362 81 c 0
 432.011146576 62.2236687638 503.145474197 43.9998382362 575.626064763 43.9998382362 c 0
 589.140445234 43.9998382362 602.5833318 44.6342764463 616 46 c 0
 650.862750468 49.5487856411 685.348943684 58.1131741219 717.132153175 72.8723354866 c 0
 748.915362665 87.6314968512 777.85069227 108.691925169 801 135 c 0
 842.363770704 182.007935946 864.000217795 245.038839319 864.000217795 307.655914053 c 0
 863.955012919 379.073477903 835.548989324 450.804233834 783 499 c 0
  Spiro
    783 499 o
    522 572 [
    384 572 v
    0 482 v
    132 138 v
    362 81 o
    576 44 o
    616 46 o
    801 135 o
    864 308 o
    0 0 z
  EndSpiro
EndSplineSet
Fore
SplineSet
775 563 m 1
 888 508 928 417 928 308 c 0
 928 116 775 -16 566 -16 c 0
 456 -16 360 -12 256 -6 c 1
 256 114 l 1
 363 108 468 104 566 104 c 0
 704 104 800 181 800 308 c 0
 800 410 734 483 645 503 c 0
 609 511 568 512 522 512 c 2
 384 512 l 1
 384 632 l 1
 430 632 477 632 523 632 c 0
 572 632 610 632 656 641 c 0
 724 654 790 703 790 777 c 0
 790 848 717 920 567 920 c 0
 468 920 373 912 276 904 c 1
 276 1024 l 1
 372 1033 463 1040 567 1040 c 0
 779 1040 918 922 918 777 c 0
 918 680 869 612 775 573 c 1
 775 563 l 1
EndSplineSet
Validated: 1
Layer: 2
SplineSet
576 980 m 0
 739.759066495 980 854 896.367742365 854 776 c 4
 854 655.632257635 739.759066495 572 576 572 c 0
 412.240933505 572 298 655.632257635 298 776 c 4
 298 896.367742365 412.240933505 980 576 980 c 0
  Spiro
    576 980 o
    720.732 953.91 o
    818.386 882.295 o
    854 776 o
    818.386 669.705 o
    720.732 598.09 o
    576 572 o
    431.268 598.09 o
    333.614 669.705 o
    298 776 o
    333.614 882.295 o
    431.268 953.91 o
    0 0 z
  EndSpiro
576 572 m 0
 745.649680398 572 864 463.770019532 864 308 c 0
 864 152.229980468 745.649680398 44 576 44 c 0
 406.350319602 44 288 152.229980468 288 308 c 0
 288 463.770019532 406.350319602 572 576 572 c 0
  Spiro
    576 572 o
    725.939 538.236 o
    827.105 445.558 o
    864 308 o
    827.105 170.442 o
    725.939 77.7635 o
    576 44 o
    426.061 77.7635 o
    324.895 170.442 o
    288 308 o
    324.895 445.558 o
    426.061 538.236 o
    0 0 z
  EndSpiro
EndSplineSet
Layer: 3
SplineSet
775 563 m 5
 888 508 928 417 928 308 c 4
 928 116 779 -16 576 -16 c 4
 473 -16 363 15 256 44 c 5
 256 170 l 5
 366 140 485 104 576 104 c 4
 708 104 800 181 800 308 c 4
 800 410 734 483 645 503 c 4
 609 511 568 512 522 512 c 6
 384 512 l 5
 384 632 l 5
 430 632 477 632 523 632 c 4
 572 632 610 632 656 641 c 4
 724 654 790 703 790 777 c 4
 790 848 720 920 577 920 c 4
 485 920 376 887 276 858 c 5
 276 984 l 5
 375 1012 480 1040 577 1040 c 4
 783 1040 918 922 918 777 c 4
 918 680 869 612 775 573 c 5
 775 563 l 5
EndSplineSet
Layer: 4
EndChar
StartChar: uni0443
Encoding: 1091 1091 208
GlifName: uni0443
Width: 1024
VWidth: 0
Flags: W
HStem: -272 120<256 450.847> 1004 20G<204 364.5 786 949>
VStem: 204 131<859.884 1024>
AnchorPoint: "top" 576 1024 basechar 0
LayerCount: 5
Back
Fore
SplineSet
605 240 m 1
 689 498 754 757 818 1024 c 1
 949 1024 l 1
 869 698 807 431 676 55 c 0
 640 -48 607 -143 546 -193 c 0
 491 -239 410 -272 256 -272 c 1
 256 -152 l 1
 338 -152 417 -138 452 -111 c 0
 500 -75 520 -12 569 128 c 1
 517 128 l 1
 360 413 273 720 204 1024 c 1
 335 1024 l 1
 394 754 470 486 595 240 c 1
 605 240 l 1
EndSplineSet
Validated: 1
Layer: 2
Layer: 3
Layer: 4
EndChar
StartChar: uni0445
Encoding: 1093 1093 223
GlifName: uni0445
Width: 1024
VWidth: 0
Flags: W
HStem: 0 21G<159 337.427 814.573 993> 1004 20G<181 359.737 792.263 971>
LayerCount: 5
Back
Fore
SplineSet
571 644 m 1
 581 644 l 1
 804 1024 l 1
 971 1024 l 1
 650 561 l 1
 650 551 l 1
 993 0 l 1
 825 0 l 1
 581 468 l 1
 571 468 l 1
 327 0 l 1
 159 0 l 1
 502 551 l 1
 502 561 l 1
 181 1024 l 1
 348 1024 l 1
 571 644 l 1
EndSplineSet
Validated: 1
Layer: 2
Layer: 3
Layer: 4
EndChar
StartChar: uni044B
Encoding: 1099 1099 215
GlifName: uni044B_
Width: 1024
VWidth: 0
Flags: W
HStem: 0 120<384 595.787> 516 120<385 595.787> 1004 20G<256 385 896 1024>
VStem: 256 128<120 516 636 1024> 658 128<184.11 451.89> 896 128<0 1024>
LayerCount: 5
Back
Fore
SplineSet
385 636 m 1
 442 636 l 2
 479 636 522 636 567 624 c 0
 696 590 786 477 786 318 c 0
 786 159 696 46 567 12 c 0
 522 0 479 0 442 0 c 2
 256 0 l 1
 256 1024 l 1
 385 1024 l 1
 385 636 l 1
384 516 m 1
 384 120 l 1
 442 120 l 2
 477 120 507 122 532 128 c 0
 610 148 658 220 658 318 c 0
 658 416 610 488 532 508 c 0
 507 514 477 516 442 516 c 2
 384 516 l 1
1024 1024 m 1
 1024 0 l 1
 896 0 l 1
 896 1024 l 1
 1024 1024 l 1
EndSplineSet
Validated: 1
Layer: 2
Layer: 3
Layer: 4
EndChar
StartChar: uni0456
Encoding: 1110 1110 235
GlifName: uni0456
Width: 1024
VWidth: 0
Flags: W
HStem: 0 120<256 512 640 896> 904 120<256 512> 1200 224<454.609 633.391>
VStem: 432 224<1222.61 1401.39> 512 128<120 904>
LayerCount: 5
Back
Fore
SplineSet
544 1424 m 0xf0
 610 1424 656 1378 656 1312 c 0
 656 1246 610 1200 544 1200 c 0
 478 1200 432 1246 432 1312 c 0
 432 1378 478 1424 544 1424 c 0xf0
256 0 m 1
 256 120 l 1
 512 120 l 1
 512 904 l 1
 256 904 l 1
 256 1024 l 1
 640 1024 l 1
 640 120 l 1xe8
 896 120 l 1
 896 0 l 1
 256 0 l 1
EndSplineSet
Validated: 1
Layer: 2
Layer: 3
Layer: 4
EndChar
StartChar: uni0459
Encoding: 1113 1113 238
GlifName: uni0459
Width: 1024
VWidth: 0
Flags: W
HStem: -16 120<128 236.842> 0 120<640 850.787> 516 120<640 850.787> 904 120<384 512>
VStem: 243 141<446.51 904> 511 129<120 516 636 904> 913 128<184.11 452.093>
LayerCount: 5
Back
Fore
SplineSet
640 516 m 1x7e
 640 120 l 1
 697 120 l 2
 732 120 762 122 787 128 c 0
 865 148 913 220 913 318 c 0
 913 416 865 489 787 508 c 0
 762 514 732 516 697 516 c 2
 640 516 l 1x7e
640 636 m 1
 697 636 l 2
 734 636 777 636 822 624 c 0
 951 590 1041 477 1041 318 c 0
 1041 159 951 46 822 12 c 0
 777 0 734 0 697 0 c 2
 640 0 l 1
 512 0 l 1
 511 0 l 1x7e
 512 904 l 1
 384 904 l 1
 384 461 377 185 361 72 c 0
 349 -14 236 -16 128 -16 c 1
 128 104 l 1xbe
 188 104 235 106 243 161 c 0
 255 248 256 522 256 1024 c 1
 384 1024 512 1024 640 1024 c 1
 640 636 l 1
EndSplineSet
Validated: 1
Layer: 2
Layer: 3
Layer: 4
EndChar
StartChar: uni045F
Encoding: 1119 1119 252
GlifName: uni045F_
Width: 1024
VWidth: 0
Flags: W
HStem: 0 120<384 512 640 768> 1004 20G<256 384 768 896>
VStem: 256 128<120 1024> 512 128<-256 0> 768 128<120 1024>
CounterMasks: 1 38
LayerCount: 5
Back
Fore
SplineSet
256 0 m 1
 256 1024 l 1
 384 1024 l 1
 384 120 l 1
 768 120 l 1
 768 1024 l 1
 896 1024 l 1
 896 0 l 1
 640 0 l 1
 640 -256 l 1
 512 -256 l 1
 512 0 l 1
 256 0 l 1
EndSplineSet
Validated: 1
Layer: 2
Layer: 3
Layer: 4
EndChar
StartChar: uni0460
Encoding: 1120 1120 326
GlifName: uni0460
Width: 1024
VWidth: 0
Flags: W
HStem: -16 120<285.95 481.431 670.569 866.135> 1388 20G<128 256 896 1024>
VStem: 128 128<133.322 1408> 512 128<133.192 896> 896 128<133.322 1408>
CounterMasks: 1 38
LayerCount: 5
Back
Fore
SplineSet
571 84 m 1
 527 11 461 -16 384 -16 c 0
 258 -16 163 61 137 167 c 0
 128 204 128 236 128 264 c 2
 128 1408 l 1
 256 1408 l 1
 256 264 l 2
 256 239 256 219 262 193 c 0
 274 140 321 104 384 104 c 0
 447 104 494 140 506 193 c 0
 512 219 512 239 512 264 c 2
 512 896 l 1
 640 896 l 1
 640 264 l 2
 640 239 640 219 646 193 c 0
 658 140 705 104 768 104 c 0
 831 104 878 140 890 193 c 0
 896 219 896 239 896 264 c 2
 896 1408 l 1
 1024 1408 l 1
 1024 264 l 2
 1024 236 1024 204 1015 167 c 0
 990 61 894 -16 768 -16 c 0
 691 -16 625 11 581 84 c 1
 571 84 l 1
EndSplineSet
Validated: 1
Layer: 2
Layer: 3
Layer: 4
EndChar
StartChar: uni0474
Encoding: 1140 1140 360
GlifName: uni0474
Width: 1024
VWidth: 0
Flags: W
HStem: 0 21G<410.5 741.5> 1388 20G<105 272 880 1047>
VStem: 105 130<1186.63 1408> 917 130<1186.77 1408>
LayerCount: 5
Back
Fore
SplineSet
581 157 m 1
 747 552 843 978 917 1408 c 1
 1047 1408 l 1
 963 927 849 445 634 0 c 1
 518 0 l 1
 303 445 189 927 105 1408 c 1
 235 1408 l 1
 309 978 405 550 571 157 c 1
 581 157 l 1
EndSplineSet
Validated: 1
Layer: 2
Layer: 3
Layer: 4
EndChar
StartChar: uni2075
Encoding: 8309 8309 367
GlifName: uni2075
Width: 1920
VWidth: 0
Flags: H
LayerCount: 5
Back
SplineSet
676 1153 m 0
 648.114619706 1178.782544 612.452393999 1195.29367222 575.371921364 1203.50175108 c 0
 538.291448729 1211.70982994 499.978072746 1212 462 1212 c 2
 320 1212 l 1
 320 1476 l 1
 768 1476 l 1
 132 907 l 1
 170.55841833 893.680684711 209.201090447 880.601603127 248 868 c 0
 293.564466557 853.200993253 339.34360624 838.877138165 386 828 c 0
 425.81167743 818.718590077 466.354157651 812.017290543 507.283944581 811.999879211 c 0
 558.99297019 811.999879211 611.874297383 824.019965222 654 854 c 0
 679.099248203 871.862641743 699.923000883 895.718598363 714.067576328 923.08604647 c 0
 728.459820422 950.932693045 736.006986431 981.815895829 736.006986431 1013.61412955 c 0
 736.006986431 1065.67184891 714.224574205 1117.65794061 676 1153 c 0
  Spiro
    676 1153 o
    462 1212 [
    320 1212 v
    320 1476 v
    768 1476 v
    132 907 v
    248 868 o
    386 828 o
    507 812 o
    654 854 o
    736 1012 o
    0 0 z
  EndSpiro
EndSplineSet
Fore
Layer: 2
SplineSet
507 1212 m 0
 641.8953125 1212 736 1130.00781249 736 1012 c 0
 736 893.9921875 641.8953125 812 507 812 c 0
 372.1046875 812 278 893.9921875 278 1012 c 4
 278 1130.00781249 372.1046875 1212 507 1212 c 0
EndSplineSet
Layer: 3
SplineSet
109.873046875 850.700195312 m 5
 154.126953125 963.299804688 l 5
 192.421875 950.072265625 230.676757812 937.125 268.950195312 924.693359375 c 4
 314.059570312 910.04296875 358.04296875 896.345703125 401.4453125 886.2265625 c 4
 438.41015625 877.608398438 473.872070312 872.013671875 507.284179688 872 c 4
 548.866210938 872 587.39453125 881.928710938 615.302734375 901.790039062 c 4
 632.147460938 913.778320312 646.697265625 930.3359375 656.47265625 949.249023438 c 4
 666.591796875 968.828125 672.006835938 990.71875 672.006835938 1013.61425781 c 4
 672.006835938 1050.44921875 655.770507812 1087.43359375 631.059570312 1110.28027344 c 4
 612.936523438 1127.03710938 588.177734375 1139.01660156 560.666015625 1145.10742188 c 4
 532.8515625 1151.26367188 499.750976562 1152 462 1152 c 4
 256 1152 l 5
 256 1536 l 5
 768 1536 l 5
 768 1416 l 5
 384 1416 l 5
 384 1272 l 5
 462 1272 l 4
 500.206054688 1272 543.73046875 1272.15527344 590.078125 1261.89648438 c 4
 636.7265625 1251.56933594 683.291992188 1230.52832031 720.940429688 1195.71875 c 4
 772.678710938 1147.8828125 800.006835938 1080.89453125 800.006835938 1013.61425781 c 4
 800.006835938 972.913085938 790.328125 933.037109375 771.662109375 896.922851562 c 4
 753.1484375 861.1015625 726.051757812 829.948242188 692.697265625 806.209960938 c 4
 636.353515625 766.112304688 569.120117188 752 507.284179688 752 c 4
 458.836914062 752.020507812 413.212890625 759.828125 370.5546875 769.7734375 c 4
 320.64453125 781.409179688 273.069335938 796.358398438 227.049804688 811.305664062 c 4
 187.725585938 824.078125 148.6953125 837.290039062 109.873046875 850.700195312 c 5
EndSplineSet
Layer: 4
EndChar
StartChar: uni266F
Encoding: 9839 9839 374
GlifName: uni266F_
Width: 1920
VWidth: 0
Flags: H
LayerCount: 5
Back
SplineSet
192 832 m 5
 960 1088 l 1029
192 312 m 5
 960 568 l 1029
768 1472 m 5
 768 64 l 1029
384 1344 m 5
 384 -64 l 1029
EndSplineSet
Fore
Layer: 2
Layer: 3
Layer: 4
EndChar
StartChar: uniE00B
Encoding: 57355 57355 306
GlifName: dollar.alt
Width: 1920
VWidth: 0
LayerCount: 5
Back
SplineSet
640 -128 m 5xde
 512 -128 l 5
 512 -13.7537457159 l 5
 411.222464039 -6.94556431245 309.190448269 14.2073384208 216 34 c 5
 216 157 l 5
 306.928445068 137.339795661 413.290993603 114.324351438 512 106.643666154 c 5
 512 652.024221791 l 5xbe
 465.919992041 660.086337289 418.1090726 673.122324036 367 701 c 4
 260 760 182 880 182 1035 c 4
 182 1240.72612805 312.594327894 1393.06463777 512 1419.81131933 c 5
 512 1536 l 5
 640 1536 l 5
 640 1420.84485823 l 5
 728.445896577 1412.50429238 817.086083134 1389.13110124 896 1369 c 5
 896 1245 l 5
 818.891750272 1265.66819065 725.353727287 1290.75978179 640 1300.18165591 c 5
 640 753.633443499 l 5
 683.872032559 747.033535457 728.489216165 738.734916859 772 722 c 4
 901 672 1010 551 1010 375 c 4
 1010 159.712626945 856.048175732 11.8311877582 640 -12.4682432816 c 5
 640 -128 l 5xde
640 108.59101919 m 5
 784.522408191 130.088423589 882 226.064078586 882 375 c 4
 882 493 813 578 724 612 c 4
 695.83228265 622.777213595 667.964535169 629.294855065 640 634.051027535 c 5xde
 640 108.59101919 l 5
512 1297.98601672 m 5
 385.267680689 1273.00191674 310 1172.25896012 310 1035 c 4
 310 927 361 845 433 805 c 4
 457.714172489 791.241594697 484.245980115 782.027277238 512 775.190369925 c 5xbe
 512 1297.98601672 l 5
EndSplineSet
Fore
Validated: 1
Layer: 2
Layer: 3
Layer: 4
EndChar
StartChar: uniE00E
Encoding: 57358 57358 366
GlifName: s.alt
Width: 1920
VWidth: 0
LayerCount: 5
Back
SplineSet
134 110 m 0
 181.912346048 100.540678383 229.917375473 91.5517768876 278 83 c 0
 329.904213391 73.7685311105 381.857134644 64.7710345531 434 57 c 0
 480.954417034 50.0022181425 528.221740465 43.9999167442 575.693858759 43.9999167442 c 0
 614.25152291 43.9999167442 652.908243477 48.1862488261 689.675023449 59.6182424476 c 0
 726.337103632 71.0176814826 760.885130894 89.8540735713 789 116 c 0
 836.748533676 160.40460469 864.000166916 225.515785655 864.000166916 290.720509012 c 0
 863.973890012 334.719584569 852.026678609 378.629136143 828.68723733 415.833926604 c 0
 805.405112799 452.947349942 770.72637287 482.526266941 731 501 c 0
 683.624372653 523.0308231 630.624610486 529.043944156 578.603787707 533.906168987 c 0
 526.582964928 538.768393818 473.538475169 544.322808957 426 566 c 0
 388.861506742 582.934876656 355.949532783 609.595982292 333.280422914 643.53960005 c 0
 310.361445324 677.857357528 297.995307751 718.683951357 297.995307751 760.400716534 c 0
 297.995307751 792.930637579 305.584841334 825.469500513 320.24199185 854.50994655 c 0
 335.109520436 883.967218013 357.282172834 909.636840138 384 929 c 0
 411.263551838 948.758661861 442.981061395 961.903425783 475.748816131 969.648116025 c 0
 508.329447229 977.348579417 541.943313344 980.000261956 575.423149094 980.000261956 c 0
 576 980 l 0
 619.901456468 979.960161051 663.738203088 975.467020496 707 968 c 0
 747.095968295 961.079404037 786.688423326 951.496726223 826 941 c 0
 866.876839758 930.085327222 907.511631713 918.277546333 948 906 c 1024
  Spiro
    134 110 {
    278 83 o
    434 57 o
    576 44 o
    789 116 o
    864 291 o
    731 501 o
    426 566 o
    298 759 o
    384 929 o
    576 980 o
    707 968 o
    826 941 o
    948 906 o
    0 0 z
  EndSpiro
EndSplineSet
Fore
Validated: 1
Layer: 2
Layer: 3
Layer: 4
EndChar
StartChar: uniE0A0
Encoding: 57504 57504 368
GlifName: uniE_0A_0
Width: 1920
VWidth: 2048
Flags: H
LayerCount: 5
Back
SplineSet
192 -324 m 5
 320 -324 l 5
 320 -133 l 6
 320 -87.3162854446 320.647795581 -41.3674209877 329.0723801 3.5327811418 c 4
 337.496964618 48.4329832713 353.605129984 91.9528476941 377.290836322 131.016758031 c 4
 424.662248999 209.144578705 500.683993183 264.774706206 575.999994201 316.50001039 c 4
 651.315995461 368.225310378 727.337740025 423.855433564 774.709154649 501.983250513 c 4
 798.394861961 541.047158987 814.503028656 584.567021739 822.927614742 629.467222468 c 4
 831.352200827 674.367423196 831.999998202 720.316286533 832 766 c 6
 832 1024 l 5
 832 766 l 6
 832 716.025732839 831.139818172 665.638835876 820.162352036 616.885142524 c 4
 809.1848859 568.131449172 788.190719567 521.545630804 757.913332421 481.787522123 c 4
 727.635945276 442.029413443 688.654880203 409.423109574 646.151464945 383.138378844 c 4
 603.648049687 356.853648113 557.757693288 336.591322863 512.000014888 316.499975332 c 4
 466.242336464 296.408633019 420.35198003 276.146313006 377.848564019 249.86158744 c 4
 335.345148008 223.576861873 296.364081431 190.970563092 266.086691734 151.212458964 c 4
 235.809302037 111.454354837 214.815132112 64.8685404176 203.837661761 16.1148501439 c 4
 192.860191409 -32.6388401298 192.000004789 -83.0257349166 192 -133 c 6
 192 -324 l 5
  Spiro
    192 -324 v
    320 -324 v
    320 -133 ]
    832 766 [
    832 1024 v
    832 766 ]
    192 -133 [
    0 0 z
  EndSpiro
EndSplineSet
Fore
Layer: 2
SplineSet
768 765.05078125 m 5
 768 1024 l 5
 896 1024 l 5
 896 766 l 4
 896 765.0625 768 765.05078125 768 765.05078125 c 5
  Spiro
    768 765.051 v
    768 1024 v
    896 1024 v
    896 766 [
    862.872 765.338 o
    801.128 765.088 o
    0 0 z
  EndSpiro
384 -384 m 5
 128 -384 l 5
 128 -133 l 4
 128 -82.447265625 128.541015625 -27.7939453125 141.217773438 28.5078125 c 4
 153.888671875 84.783203125 178.118164062 138.958984375 214 186.075195312 c 4
 249.778320312 233.05859375 294.861328125 270.419921875 342.609375 299.946289062 c 4
 390.16796875 329.358398438 439.044921875 350.720703125 484.85546875 370.8359375 c 4
 530.560546875 390.903320312 573.465820312 410.06640625 610.91015625 433.22265625 c 4
 648.174804688 456.267578125 681.048828125 484.115234375 705.826171875 516.650390625 c 4
 730.498046875 549.047851562 748.258789062 588.048828125 757.541992188 629.27734375 c 4
 766.819335938 670.48046875 768 716.609375 768 766 c 4
 768 1024 l 5
 769 1024 896 1024.9375 896 1024 c 4
 896 766 l 4
 896 719.8203125 895.578125 670.333007812 885.959960938 619.072265625 c 4
 876.350585938 567.856445312 857.96484375 517.879882812 830.34765625 472.333007812 c 4
 774.821289062 380.75390625 689.793945312 320.2734375 613.821289062 268.09765625 c 4
 539.161132812 216.823242188 472.145507812 166.04296875 432.930664062 101.366210938 c 4
 413.17578125 68.78515625 399.344726562 31.72265625 392.104492188 -6.861328125 c 4
 384.873046875 -45.4013671875 384 -87.8125 384 -133 c 4
 384 -384 l 5
  Spiro
    384 -384 v
    128 -384 v
    128 -133 [
    128.608 -81.2242 o
    132.163 -27.0987 o
    141.218 28.5078 o
    157.725 83.8453 o
    182.027 136.841 o
    214 186.075 o
    252.593 229.877 o
    296.041 267.777 o
    342.609 299.946 o
    390.397 326.902 o
    438.233 350.075 o
    484.855 370.836 o
    529.485 390.763 o
    571.785 411.237 o
    610.91 433.223 o
    646.54 457.838 o
    678.517 485.711 o
    705.826 516.65 o
    728.116 551.051 o
    745.506 588.993 o
    757.542 629.277 o
    764.372 672.016 o
    767.352 717.805 o
    768 766 ]
    768 1024 v
    801.573 1024.21 o
    863.094 1024.42 o
    896 1024 o
    896 766 o
    895.536 718.823 o
    892.833 669.635 o
    885.96 619.072 o
    873.424 568.438 o
    854.883 519.19 o
    830.348 472.333 o
    766.487 390.349 o
    691.306 323.826 o
    613.821 268.098 o
    542.523 216.508 o
    480.61 161.887 o
    432.931 101.366 o
    415.191 67.4362 o
    401.505 31.0686 o
    392.104 -6.86133 o
    386.793 -46.6102 o
    384.493 -88.8217 o
    384 -133 ]
    0 0 z
  EndSpiro
383.799804688 653 m 5
 128 420.599609375 l 5
 128 1467 l 5
 383.799804688 1467 l 5
 383.799804688 653 l 5
  Spiro
    383.8 653 v
    128 420.6 v
    128 1467 v
    383.8 1467 v
    0 0 z
  EndSpiro
EndSplineSet
Layer: 3
Layer: 4
EndChar
StartChar: uniE0B1
Encoding: 57521 57521 371
GlifName: uniE_0B_1
Width: 1920
VWidth: 2048
Flags: H
LayerCount: 5
Back
SplineSet
305 -84 m 5
 929 640 l 5
 305 1364 l 1029
EndSplineSet
Fore
Layer: 2
Layer: 3
Layer: 4
EndChar
StartChar: Atilde.sqeeze
Encoding: 1114172 -1 385
Width: 1920
VWidth: 0
Flags: H
LayerCount: 5
Back
SplineSet
581 1139 m 5
 754 787 849 396 917 0 c 5
 1047 0 l 5
 970 441 857 884 632 1280 c 5
 520 1280 l 5
 295 884 182 441 105 0 c 5
 235 0 l 5
 303 396 399 788 571 1139 c 5
 581 1139 l 5
  Spiro
    581 1139 v
    729.762 775.633 o
    838.203 392.685 o
    917 0 v
    1047 0 v
    955.295 439.415 o
    822.323 870.57 o
    632 1280 v
    520 1280 v
    329.677 870.57 o
    196.705 439.415 o
    105 0 v
    235 0 v
    314.019 392.907 o
    422.682 776.078 o
    571 1139 v
    0 0 z
  EndSpiro
EndSplineSet
Fore
Layer: 2
SplineSet
113 1738 m 5
 163 1448 l 6
 240.269856334 999.83483326 350.99504325 551.215658615 576 156 c 5
 801.00495675 551.215658615 911.730143666 999.83483326 989 1448 c 6
 1039 1738 l 1029
  Spiro
    113 1738 {
    163 1448 ]
    576 156 v
    989 1448 [
    1039 1738 o
    0 0 z
  EndSpiro
EndSplineSet
Layer: 3
Layer: 4
EndChar
StartChar: greater2
Encoding: 1114140 -1 378
GlifName: greater2
Width: 1920
VWidth: 0
Flags: H
LayerCount: 5
Back
SplineSet
507 571 m 5
 507 581 l 5
 84 987 l 5
 171 1083 l 5
 640 624 l 5
 640 528 l 5
 171 69 l 5
 84 165 l 5
 507 571 l 5
EndSplineSet
Fore
Layer: 2
Layer: 3
Layer: 4
EndChar
StartChar: six.straighter
Encoding: 1114170 -1 384
GlifName: six.straighter
Width: 1920
VWidth: 0
Flags: H
LayerCount: 5
Back
SplineSet
605.884765625 1478.85253906 m 1
 718.115234375 1421.1484375 l 1
 620.798828125 1254.79492188 529.594726562 1086.27734375 462.260742188 909.79296875 c 0
 406.82421875 764.48828125 384 606.814453125 384 448 c 0
 384 306 l 1
 256 306 l 1
 256 448 l 0
 256 617.438476562 280.166015625 788.822265625 341.739257812 950.20703125 c 0
 412.706054688 1136.21289062 507.294921875 1310.3203125 605.884765625 1478.85253906 c 1
  Spiro
    605.885 1478.85 v
    718.115 1421.15 v
    623.585 1254.03 o
    536.812 1083.66 o
    462.261 909.793 o
    417.367 760.933 o
    391.954 605.862 o
    384 448 ]
    384 306 v
    256 306 v
    256 448 [
    264.528 617.475 o
    292.183 786.098 o
    341.739 950.207 o
    419.769 1132.3 o
    509.449 1308.4 o
    0 0 z
  EndSpiro
EndSplineSet
Fore
Layer: 2
SplineSet
662 1450 m 4
 564.047348479 1282.55776091 471.150424727 1111.24525961 402 930 c 4
 343.494649847 776.655788177 320 612.125937304 320 448 c 6
 320 306 l 1029
  Spiro
    662 1450 {
    402 930 o
    320 448 [
    320 306 v
    0 0 z
  EndSpiro
EndSplineSet
Layer: 3
Layer: 4
EndChar
